<svg width="353" height="286" fill="none" xmlns="http://www.w3.org/2000/svg"><path opacity=".3" d="M42.6 136.4s-32.2-37.3 7.2-75c29.7-28.3 66 5.5 97.7-7.3C179 41.3 225-12.3 278.9 12.4c54 24.7 63.5 97 30.4 123.2l-266.7.8Z" fill="#fff"/><path d="M316.6 120.3c-13 2.7-25.6 8.6-38.7 7.2-7.8-1-15.2-4.4-23-5.5-19.6-2.9-39.3 9.2-58.6 5-7.3-1.5-14-5.3-21.2-7-22.6-5.5-45.8 9.6-68.7 6.2-13.3-2-26-10.1-39.2-8-5.6.8-10.7 3.4-16.2 5a43.4 43.4 0 0 1-34.6-5c-3.6-2.3-7-5.2-11-6.7-1.7-.6-3.6-.9-5.4-.8V247h353V120.9a82 82 0 0 0-36.4-.6Z" fill="#526B1B"/><path d="M353 192.8H0v60.5h353v-60.5Z" fill="#626C72"/><path d="M353 135.5H0v57h353v-57Z" fill="#6E9022"/><path d="M200.8 155.8c0 1.7-39.1 3.1-87.3 3.1-48.2 0-87.2-1.4-87.2-3.2 0-1.7 39-3.1 87.2-3.1s87.3 1.4 87.3 3.2ZM233 161c0 3 53.6 5.4 119.5 5.4v-10.9c-66 0-119.4 2.4-119.4 5.4ZM353 142.3 0 139.8v-4.3h353v6.8Z" fill="#607D1F"/><path d="M17 221.1H0v3.8h17v-3.8ZM113.5 221.1H46.3v3.8h67.2v-3.8ZM210.1 221.1H143v3.8H210v-3.8ZM306.7 221.1h-67.2v3.8h67.2v-3.8ZM353 221.1h-17v3.8h17v-3.8Z" fill="#F6F8F5"/><path d="M353 192.8H0v8h353v-8Z" fill="#7C828B"/><path d="M353 173.2H0v19.6h353v-19.6Z" fill="#BECAD3"/><path d="M32.4 193.2h-2.2v7.7h2.2v-7.7ZM129.2 193.2H127v7.7h2.2v-7.7ZM226 193.2h-2.2v7.7h2.2v-7.7ZM322.8 193.2h-2.1v7.7h2.1v-7.7Z" fill="#666C73"/><path opacity=".2" d="M0 227.1v14.5c171.3 0 310.3-3.3 310.3-7.2 0-4-139-7.3-310.3-7.3Z" fill="#1F2526"/><path d="M157.4 104.7s.1 2.6 2.5 2.6l34.7-.5.8-5-25.2-2.5-12.8 5.4Z" fill="#AB5A40"/><path d="M195.4 101.9s5-.9 6.4-1c1-.2 4.2 5 4 5.6-.1.6-1.6 0-1.6 0s0 1.2-.4 1.1c-.5 0-1-.5-1-.5s.6 1.4 0 1.5c-.5 0-1.5-2-1.5-2s-5.1 2-6.7.2l.8-5Z" fill="#AB5A40"/><path d="m121.8 213.6 3.1 2.6c1 .8 2.3 1.1 3.4.8l18-4.4-6-7.2-18.5 8.2ZM202 125v3.7c0 3.8 2.2 7.3 5.8 8.8l11.7 4.8c.4 0 7.8-7.8 7.8-7.8l-12-9.4h-13.4Z" fill="#454545"/><path d="M199 103.8h-3a2.5 2.5 0 0 0-2.4 2.5v5c0 .8.2 1.5.6 2.2l4 6.3c1 1.6 2.6 2.8 4.5 3.2l6.4 1.6 7-3-8.2-17.8h-8.8Z" fill="#2E2E2E"/><path d="M194 111.8h17.5v-5h-17.6v5Z" fill="#454545"/><path d="m223 122.7-3.2-4.1 7.3-1a3 3 0 0 0 1.6-5.2l-6-5c-2.7-2.3-6-3.6-9.5-3.6H199c0 3 2 5.6 4.8 6.4l5.8 1.5-3.2 2c-1.5 1-1.8 3-.6 4.4l4.1 4.6h13Z" fill="#57B563"/><path d="m225.3 211.7-5.3 7.7a8.7 8.7 0 0 1-7.1 3.8h-54.2c-2.3 0-4.4-.9-6-2.4l-10.4-10 83 1Z" fill="#2E2E2E"/><path d="M256 236.9a27.6 27.6 0 1 0 0-55.2 27.6 27.6 0 0 0 0 55.2Z" fill="#494949"/><path d="M256 223.2a14 14 0 1 0 0-27.9 14 14 0 0 0 0 27.9Z" fill="#B9B9B9"/><path d="M256 220a10.8 10.8 0 1 0 0-21.5 10.8 10.8 0 0 0 0 21.5Z" fill="#6E6E6E"/><path d="M87.7 236.9a27.6 27.6 0 1 0 0-55.2 27.6 27.6 0 0 0 0 55.2Z" fill="#494949"/><path d="M87.7 223.2a14 14 0 1 0 0-27.9 14 14 0 0 0 0 27.9Z" fill="#B9B9B9"/><path d="M87.7 220a10.8 10.8 0 1 0 0-21.5 10.8 10.8 0 0 0 0 21.5Z" fill="#6E6E6E"/><path d="M256.6 213.2a3.2 3.2 0 0 0 1.8-4.2l-5.3-12.6-6 2.5 5.3 12.6a3.2 3.2 0 0 0 4.2 1.7Z" fill="#E9EBE7"/><path d="m247 202.7 8.9-3.7-10.1-24.3-8.9 3.7 10.1 24.3Z" fill="#2E2E2E"/><path d="M287 196.7s-6.9-24.6-37.3-24.6l-10.5 14.2 5.3 6.9a9.2 9.2 0 0 0 7.3 3.5h35.1Z" fill="#57B563"/><path d="m264 174.2-5.7 22.5" stroke="#F6F8F5" stroke-miterlimit="10"/><path d="M109.1 144.3H87.7c-2.2 0-3.8 2-3.4 4l3.6 18a8.8 8.8 0 0 0 4.6 6.2l14.1 7.4 2.5-35.6Z" fill="#2E2E2E"/><path d="m88.4 149.7 2.6 13c.3 1.9-1.1 3.7-3.1 3.7l-3.6-18h2.4c.9 0 1.6.6 1.7 1.3Z" fill="#EA613B"/><path d="m109.8 178.9-23.2 23.3a11.5 11.5 0 0 0 11.6 19l39-12.5-27.4-29.8Z" fill="#2E2E2E"/><path d="m168 192.7 49.4 1v9.7h-62.2l12.8-10.7Z" fill="#454545"/><path d="m218.1 122.2-3.8 2.9 7.5 13.1-2.5 1.3a5.7 5.7 0 0 0-2.4 7.7l4.8 9.1c1.5 3 1.7 6.4.6 9.5-3.5 9.1-10.6 28.6-10.6 34.5l33.5-34.3-27-43.8ZM168 192.7 157 203.4l-14.6-17.3v-24.9H168l-6.4 13c-1.4 2.9-1.2 6.3.5 9.1l6 9.4Z" fill="#2E2E2E"/><path d="M90.8 138a8.7 8.7 0 0 0 5.7 9.7l51.3 17.3h18.8c2.1 0 4.1-1 5.5-2.6l1-1.3a3 3 0 0 0 0-3.9l-12.4-13.9a7.4 7.4 0 0 0-6.4-2.4l-8.6 1a74 74 0 0 1-20.2 0l-33.3-5c-.7 0-1.3.4-1.4 1Z" fill="#454545"/><path d="m255.8 156.3-20-25.6a25.4 25.4 0 0 0-33.9-5.6l7.7 2.8a33 33 0 0 1 17.5 15l5 9a25 25 0 0 1-3.1 28.7L214.5 197a9.6 9.6 0 0 1-7.2 3.3h-43.5c-3 0-5.8-1.4-7.7-3.8l-5.7-7.4a6.1 6.1 0 0 1-.6-6.4l3.5-7.4c.7-1.4.7-3 .1-4.5l-2-4.7A30.3 30.3 0 0 0 129 148l-19-3.6c-1.1-.2-2.2 0-3.2.3l-7.7 2.5c-2.3.8-3.9 3-3.9 5.4v12.5c0 1.4.6 2.8 1.5 3.9l42.4 46.7c2 2.4 5.1 3.7 8.3 3.7h66.5c3.6 0 7-1.7 9-4.5l33-44.3a11.8 11.8 0 0 0-.1-14.3Z" fill="#F6F8F5"/><path d="M196 219.5h13.7v-1.2H196v1.2ZM178 219.5h13.7v-1.2h-13.6v1.2ZM160.1 219.5h13.7v-1.2h-13.7v1.2Z" fill="#D7D9D6"/><path d="M214.8 211.3h-42.4l-3.1 3.5H216l-1.2-3.5Z" fill="#57B563"/><path d="m247.3 145.5-14.2 8.5M160.8 199.6 143.9 219" stroke="#E9EBE7" stroke-miterlimit="10"/><path d="m146.1 197.4-20.5-22.7 12.5 8a10 10 0 0 0 8.3 1l3.4-1c-1 2-.8 4.6.6 6.4l5.7 7.4a9.6 9.6 0 0 0 7.7 3.8h-11a9 9 0 0 1-6.7-3Z" fill="#E9EBE7"/><path opacity=".1" d="M207.6 200.3a9.6 9.6 0 0 1-5.5 1.8h-43.6c-3 0-5.8-1.4-7.6-3.8l-5.7-7.4a6.1 6.1 0 0 1-.7-6.4l3.6-7.4c.7-1.4.7-3 .1-4.5l-2-4.8a30.3 30.3 0 0 0-22.4-18l-19.1-3.6c-1-.2-2.2-.1-3.2.2l-2.5.9.2-.1 7.6-2.5c1-.4 2-.4 3.1-.3L129 148c10 1.8 18.5 8.6 22.5 18l2 4.8c.6 1.5.5 3-.2 4.5l-3.5 7.4c-1 2.1-.8 4.6.6 6.4l5.8 7.5a9.6 9.6 0 0 0 7.6 3.7h43.8Z" fill="#454545"/><path d="M112 142v3.5c0 .5-.4 1-1 1h-3.2L89.3 142a2.9 2.9 0 0 1-2.2-3.3c0-.4.5-.7 1-.7l23 2.9c.6 0 1 .5 1 1Z" fill="#3B3B3B"/><path d="m210.8 199.6 6.6 19.3" stroke="#E9EBE7" stroke-miterlimit="10"/><path d="M123.4 204.8c-5.4-.9-10-4.6-11.9-9.8l-2-5.2-12.3 12.5a5.6 5.6 0 0 0-1.4 6c1.1 2.7 4.1 4 6.7 3.2l20.9-6.7Z" fill="#363636"/><path d="M191.5 109.3a2.5 2.5 0 1 0 4.9 0 2.5 2.5 0 0 0-5 0Z" fill="#3D3D3D"/><path d="m212 103.8 4.7 6.9a5 5 0 0 0 4.2 2.2h8.2" stroke="#F6F8F5" stroke-miterlimit="10"/><path d="m131.2 207 1-4.2c.4-1.3 0-2.6-.8-3.6l-17-19c-.9-.8-2-1.3-3.2-1.2l-5 .4 25 27.6Z" fill="#57B563"/><path d="M224.5 192.5c.7.6 1.8.5 2.5-.3l2.1-2.6c.6-.7.5-1.8-.2-2.5-.8-.6-1.9-.5-2.5.3l-2.2 2.6c-.6.7-.5 1.9.3 2.5Z" fill="#EA613B"/><path d="M126.7 214.8c0 .4.3.7.7.7.4 0 .7-.3.7-.7 0-.4-.3-.7-.7-.7-.4 0-.7.3-.7.7Z" fill="#2E2E2E"/><path d="m121 193.2-1.3 1.1 7.8 8.7 1.3-1.2-7.8-8.6ZM110.3 181.5l-1.2 1.2 7.8 8.6 1.3-1.2-7.9-8.6Z" fill="#494949"/><path d="M120 171.2a6.8 6.8 0 0 0-9.6-9.6 6.8 6.8 0 0 0 9.6 9.6Z" fill="#E9EBE7"/><path d="m115.4 161.2-4.7 6.2h4l-1.5 4.1 6-6.6-4.2-.2.4-3.5Z" fill="#57B563"/><path d="m238.2 133.7 17.6 22.6c-2.6 1.6-6 1-7.8-1.3l-9-11.4a9.2 9.2 0 0 1-.8-9.9Z" fill="#D7D9D6"/><path d="M159.5 211.3h8.9l-3.2 3.5h-8.8l3-3.5Z" fill="#57B563"/><path d="m189.5 176.2-1 14.4H181l1.3-14.4h7.3Z" fill="#FE7A63"/><path d="M188.8 186s-2.6-1-4.2 2.3c-.8 1.8-3.7.6-3.7.6s-2 2-2 6.3h20.2s0-1.8-.6-2.5c-.5-.6-6.6-1.4-8.2-1.8-1-.3-1.5-5-1.5-5Z" fill="#F2F2F2"/><path d="M199 195.2H179v1.4h20.2v-1.4Z" fill="#FDBD51"/><path d="M194 191.6s.2 2.1-1.4 2c-1.6-.2-5.6-1-5.8 1.6" stroke="#26355B" stroke-width=".5" stroke-miterlimit="10"/><path d="m189.8 187.8-2.3.6" stroke="#26355B" stroke-width=".3" stroke-miterlimit="10"/><path d="m190.1 189-2.2.8M190.3 190l-2 1.2M179.9 190.5s3.2 1.2 2.9 4.7" stroke="#26355B" stroke-width=".5" stroke-miterlimit="10"/><path d="M197.8 135c-2-4-39.8-9.9-39.8-9.9l-23.3.4s-3.5 18.8 5.8 19c7.8.2 46.7 0 46.7 0l-5.5 41.9h8.4s9.5-47.9 7.7-51.5Z" fill="#546F94"/><path d="M190.9 182.3h-8.6" stroke="#0D0000" stroke-width=".5" stroke-miterlimit="10"/><path d="M160.9 66.4c1.3 7 2.7 9.4 4 14.9 1.5 6.2 6.4 17.5 6.4 17.5s-9.9 5-15 4.9c0 0-2.3-3.2-.8-4.5 0 0-4.3-21.4-3-26 1.3-4.5 8.4-6.8 8.4-6.8Z" fill="#F2F2F2"/><path d="m169.9 95.3-14.7 6.2" stroke="#0D0000" stroke-width=".5" stroke-miterlimit="10"/><path d="m159.9 64.9-7.6-5.8s-14 7.1-18 12c-8.4 10.8-10 54.4-10 54.4l33.7-.4c.8-4 4.6-42.3 6-47.7 1.2-5.5-4.1-12.5-4.1-12.5Z" fill="#D84F63"/><path d="m159.1 98.4-16.5 17.8M159.1 104.6l-5.7 9.6" stroke="#0D0000" stroke-width=".5" stroke-miterlimit="10"/><path d="m136.4 79.4-5.1 46h1.8l6.1-46h-2.8Z" fill="#D9D9D9"/><path d="M149.5 60.4s2.9 5.8 6 7c3.7 1.4 5.4-1 5.4-1l-1-1.5-7.6-5.8-2.8 1.3Z" fill="#F2F2F2"/><path d="m139.9 72 11.9-10.5s1.9 1.2 1.9 1.6c0 .2-10.9 10-10.9 10l-3-1Z" fill="#F2F2F2"/><path d="M152.4 84c-1-5.5-7.8-14-11.6-12.7 0 0-3.7 2.3-4.4 7-.6 4.7 7.9 28.6 7.9 28.6l16-6.9a66 66 0 0 1-7.9-16Z" fill="#F2F2F2"/><path d="m160.9 66.4 3.8-18.5h-9.5l-2.9 11.2s.5 7 8.6 7.3Z" fill="#D47050"/><path d="M156.8 51.7s-1.8 8.3 5 9.8l2-9.4-7-.4Z" fill="#0D0000"/><path d="m170.8 37.8-.6 12.1c-.2 4-3.5 7-7.5 6.8-2.5 0-4.9-1.5-6.2-3.7l-1.7-2.9.6-13 15.4.7Z" fill="#D47050"/><path d="M161.8 48.3c.2 0 .5-.4.5-1s-.3-1-.5-1c-.3 0-.6.4-.6 1s.3 1 .6 1ZM167.5 47.3c0 .6-.2 1-.5 1s-.5-.4-.5-1 .2-1 .5-1 .5.4.5 1Z" fill="#491800"/><path d="m160.8 52.7 6.2-.3s-.9 3.2-3.1 3.2c-2.3 0-3-2.9-3-2.9Z" fill="#F2F2F2"/><path d="M164.2 45.5s.9 4.3.6 5c-.2.5-1 .7-1.3.7" stroke="#2C1817" stroke-width=".5" stroke-miterlimit="10"/><path d="M162.3 43.5c0 .3-1.6.6-2.5.7-.9 0-1.2-.1-1.2-.4 0-.3 1-.6 2-.7.9 0 1.7.1 1.7.4ZM165.5 43.3c0 .3 1.6.4 2.5.3 1 0 1.2-.3 1.2-.5 0-.3-1.1-.5-2-.4-1 0-1.7.3-1.7.6Z" fill="#491800"/><path d="M156 47c-.1 1.4-1.3 2.5-2.8 2.3a2.8 2.8 0 0 1-2.5-3c0-1.4 1.3-2.5 2.7-2.3 1.5.1 2.6 1.4 2.6 3Z" fill="#FE7A63"/><path d="M152.2 46.4c1-.3 1.9-.2 2.5 1.2" stroke="#2C1817" stroke-width=".5" stroke-miterlimit="10"/><path d="M156 47c1.9 0 2-6.2 2.1-7.3 1.4 1.6 5.5 3.2 7 3 1.3-.3 1.5-1.5.6-2.2.9.9 5 2.8 6 2.4 1-.5.3-6.5-1.3-7.3-1.7-.7-14.5-.4-15.5.9-1 1.6-1.2 10.3 1 10.4Z" fill="#75332F"/><path d="m181.7 180-1 14.4h-7.6l1.4-14.4h7.2Z" fill="#FE7A63"/><path d="M181 189.8s-2.6-1-4.1 2.4c-.9 1.8-3.7.6-3.7.6s-2 2-2 6.2h20.1s0-1.8-.5-2.4c-.5-.7-6.6-1.4-8.2-1.9-1-.2-1.5-5-1.5-5Z" fill="#fff"/><path d="M191.3 199h-20.2v1.4h20.2V199Z" fill="#FDBD51"/><path d="M186.3 195.4s.1 2.2-1.5 2c-1.6-.1-5.6-1-5.8 1.6" stroke="#26355B" stroke-width=".5" stroke-miterlimit="10"/><path d="m182 191.7-2.2.6" stroke="#26355B" stroke-width=".3" stroke-miterlimit="10"/><path d="m182.3 192.8-2.2.8M182.6 193.8l-2 1.2M172.1 194.4s3.2 1.1 3 4.6" stroke="#26355B" stroke-width=".5" stroke-miterlimit="10"/><path d="M191.2 138.1c0-3.2-42.9-13-42.9-13l-24 .4s-3.6 18.8 5.7 19c7.8.2 46.7 0 46.7 0l-6.1 46h12.3s8.3-48.3 8.3-52.4Z" fill="#607EA8"/><path d="M146.8 105.8s.3 3.5 3 3.5c6.5 0 39-2.5 39-2.5l1-5-29.5-1.8-13.5 5.8ZM189.8 101.9s5.8-.9 7.4-1c1.2-.2 4.7 5 4.6 5.6-.2.6-1.9 0-1.9 0s0 1.2-.5 1.1c-.5 0-1-.5-1-.5s.5 1.4 0 1.5c-.7 0-1.8-2-1.8-2s-6 2-7.7.2l1-5Z" fill="#D47050"/><path d="m143.2 103.7 15.3-6.5M124.4 122.2h34.1M160.3 100l-1.8 2.4" stroke="#0D0000" stroke-width=".5" stroke-miterlimit="10"/><path d="M128.2 125.4s-1.9 13.4 3 15c5 1.6 47.5.2 48.6 2 1 1.7-1.5 15.4-7.7 47.9" stroke="#7397C9" stroke-width=".5" stroke-miterlimit="10"/><path d="M171 187.2h12.5M176.7 144.5l.9-4.7" stroke="#0D0000" stroke-width=".5" stroke-miterlimit="10"/><path opacity=".2" d="M173.5 39s4.3 4.2 1.6 8.9h-19.7v-9h18Z" fill="#4C5054"/><path opacity=".2" d="M169.2 47.9h-4.4l-2.2-9h4.4l2.2 9ZM173.2 47.9h-2l-2.3-9h2.1l2.2 9Z" fill="#F6F8F5"/><path d="M173.5 37.9v1h-13.3c-2.2 0-4.3 2-3.5 4 1.3 3.4 1 4.8-1.5 6.4-.8.5-2 .5-3.5 0-3.3-1.1-6.5-7.4-5.1-12.7 2.6-10.4 12.9-12.2 17.6-11 4.8 1.2 9.1 5.5 9.3 12.3Z" fill="#57B563"/><path d="M159 25.5s8 4 8 12.4h2.5s-1.4-12.4-10.5-12.4Z" fill="#60C76D"/><path d="M162.6 25.5s8 4 8 12.4h2.6s-1.5-12.4-10.6-12.4Z" fill="#60C76D"/><path d="M173.5 37.9v1h-13.3c-2.2 0-4.3 2-3.5 4 1.3 3.4 1 4.8-1.5 6.4-.7.5-2 .5-3.5 0 4.8-.7 4.7-3.8 3.5-7.2-.8-2.2 1.7-4.2 3.5-4.2h14.8Z" fill="#F2F2F2"/><path d="M152 46.3a2.1 2.1 0 1 0 0-4.2 2.1 2.1 0 0 0 0 4.2Z" fill="#60C76D"/><path d="M307.7 30c-2.1-1-4-2.3-6.2-3-11.4-4.4-24.8 6.7-35.7 1.4-2.1-1-4-2.6-6.3-3-5.4-1-9.5 5-14.8 6.5-2 .6-4.4.5-6.6.6-4.8 0-9.7.9-14.3 2.4l114.2-.6c-8.1-6.5-20.7-.5-30.3-4.4ZM101.6 95.2 0 94.7V78.2c2.5-.1 5 .3 7.2 1.4 5 2.7 8.2 8.6 13.8 9.8 4.2.8 8.4-1.4 12.6-1.8 6.5-.6 12.4 3 18.6 4.8 16 4.7 33.6-2.4 49.4 2.8Z" fill="#fff"/></svg>