<svg width="332" height="182" fill="none" xmlns="http://www.w3.org/2000/svg"><path d="M5 166.1v9.9H3.1v-9.9h-3v-1.5h8v1.5H5Zm4.8 9.9v-12.1h1.5v6c.4-.6.8-1 1.2-1.2.5-.2 1-.4 1.7-.4.6 0 1 .1 1.4.3a2 2 0 0 1 1.2 1.5l.1 1.4v4.5h-1.7v-3.8c0-1-.1-1.6-.4-2-.2-.3-.6-.4-1.2-.4-.4 0-.8 0-1 .2-.4.1-.6.3-.8.6l-.3.7v4.7H9.7Zm17-3.5h-6c0 .7.3 1.3.6 1.7.4.4.9.6 1.5.6s1-.2 1.4-.4c.3-.2.7-.6 1-1.1l1.4.8c-.5.7-1 1.3-1.6 1.7-.6.3-1.3.5-2.2.5-1.1 0-2-.4-2.8-1a4 4 0 0 1-1-3 4 4 0 0 1 1-2.8c.8-.8 1.7-1.2 2.8-1.2 1.2 0 2.2.4 2.8 1a4 4 0 0 1 1 3v.2Zm-1.8-1c0-.6-.3-1-.6-1.3-.4-.3-.8-.4-1.4-.4a2 2 0 0 0-1.4.4c-.3.3-.5.7-.7 1.2h4Zm5.6-1.7c.2-.5.5-.9.8-1.1.3-.2.6-.4 1-.4l.8.1.7.3-.6 1.4-.5-.2h-.6c-.5 0-1 .1-1.2.6a5 5 0 0 0-.4 2.3v3.2H29v-7.4h1.7v1.2Zm11.8 2.7h-6c.1.7.3 1.3.7 1.7.4.4.9.6 1.5.6.5 0 1-.2 1.3-.4.4-.2.7-.6 1-1.1l1.4.8c-.4.7-.9 1.3-1.5 1.7-.6.3-1.4.5-2.2.5-1.2 0-2.1-.4-2.8-1a4 4 0 0 1-1-3 4 4 0 0 1 1-2.8c.7-.8 1.7-1.2 2.8-1.2 1.2 0 2.1.4 2.8 1a4 4 0 0 1 1 3v.2Zm-1.7-1c-.1-.6-.3-1-.7-1.3-.3-.3-.8-.4-1.3-.4a2 2 0 0 0-1.4.4c-.3.3-.6.7-.7 1.2h4Zm16.2 4.5h-1.7v-1a3 3 0 0 1-1.1 1 3 3 0 0 1-1.4.3 3 3 0 0 1-2.5-1c-.6-.8-.9-1.8-.9-3s.4-2.1 1-2.9a3 3 0 0 1 2.4-1 3 3 0 0 1 1.5.3c.5.3.8.6 1 1.1v-1.2h1.7v7.4Zm-1.7-3.7c0-.8-.2-1.4-.5-1.8-.4-.4-.9-.7-1.5-.7-.7 0-1.2.3-1.5.7-.4.4-.6 1-.6 1.8s.2 1.4.5 1.9c.4.4.9.6 1.5.6.7 0 1.2-.2 1.5-.7.4-.5.6-1 .6-1.8Zm6.1-2.5c.2-.5.5-.9.8-1.1.3-.2.6-.4 1-.4l.8.1.7.3-.6 1.4-.5-.2h-.6c-.5 0-1 .1-1.2.6a5 5 0 0 0-.4 2.3v3.2h-1.7v-7.4h1.7v1.2Zm11.8 2.7h-6c.1.7.3 1.3.7 1.7.4.4.9.6 1.5.6.5 0 1-.2 1.3-.4.4-.2.7-.6 1-1.1l1.4.8c-.4.7-.9 1.3-1.5 1.7-.6.3-1.4.5-2.2.5-1.2 0-2.1-.4-2.8-1a4 4 0 0 1-1-3 4 4 0 0 1 1-2.8c.7-.8 1.7-1.2 2.8-1.2 1.2 0 2.1.4 2.8 1a4 4 0 0 1 1 3v.2Zm-1.8-1c0-.6-.2-1-.6-1.3-.3-.3-.8-.4-1.4-.4a2 2 0 0 0-1.3.4c-.3.3-.6.7-.7 1.2h4Zm12.3 4.5v-9.9h-2.3l.7-1.4h3.3V176h-1.7Zm7.7-.2L96 166h-5.3v-1.4h7.9l-5.8 11.7-1.5-.6Zm10.8-1.7 1.5.5-2 4.2-1-.4 1.5-4.3Zm11.8-3.6c0 1.8-.4 3.2-1.1 4.3-.8 1-1.8 1.5-3 1.5-1.4 0-2.4-.5-3.1-1.6-.7-1-1-2.5-1-4.3 0-1.9.3-3.4 1-4.4.7-1 1.8-1.6 3-1.6 1.4 0 2.4.6 3 1.6a8 8 0 0 1 1.2 4.5Zm-4.2 4.2c.8 0 1.3-.4 1.7-1 .4-.8.6-1.9.6-3.3 0-1.5-.2-2.5-.6-3.3-.4-.7-.9-1-1.6-1-.8 0-1.4.3-1.7 1-.4.8-.6 1.9-.6 3.3s.2 2.4.6 3.2c.3.7.9 1.1 1.6 1.1Zm11-6.4-2.9 4h3v-2.9a16.7 16.7 0 0 1 0-1.1Zm0 7.7v-2.3h-5.5l6.7-9.3h.5v8h1.4v1.3h-1.4v2.3h-1.7Zm8.7 0v-9.9H127l.7-1.4h3.4V176h-1.7Zm12.4 0v-11.4h6.4v1.5h-4.5v3h4.5v1.5h-4.5v3.7h4.5v1.7h-6.4Zm12.6.4-5-11.8h1.8l2.6 6a12.3 12.3 0 0 1 .6 1.9 10 10 0 0 1 .6-1.8l2.6-6.1h2l-5.2 11.8Zm5.7-1.7 1.4-.8c.1.4.3.6.6.8.3.2.6.3 1 .3.5 0 .8 0 1-.2.2-.2.3-.5.3-.8 0-.4-.4-.7-1.1-1l-.7-.2c-.7-.3-1.3-.7-1.6-1-.3-.4-.5-.8-.5-1.3 0-.6.3-1.2.8-1.6.5-.4 1.2-.6 2-.6.6 0 1.1.1 1.5.3.4.2.7.5 1 1l-1.3.8a1 1 0 0 0-.5-.6l-.7-.2c-.3 0-.6 0-.8.2l-.3.6c0 .4.4.8 1.3 1.1l.7.2c.6.3 1.1.6 1.4 1 .3.3.5.7.5 1.2a2 2 0 0 1-.8 1.8c-.6.4-1.3.6-2.3.6-.7 0-1.3-.1-1.8-.4-.4-.3-.8-.7-1-1.2Zm13.2-9.3c0-.3.1-.5.4-.8.2-.2.4-.3.7-.3.3 0 .6.1.8.3.2.2.3.5.3.8 0 .3-.1.5-.3.8a1 1 0 0 1-.8.3 1 1 0 0 1-.7-.4 1 1 0 0 1-.4-.7Zm.3 10.6v-7.4h1.7v7.4h-1.7Zm4.5 0v-7.4h1.6v1.2c.4-.5.8-.9 1.2-1.1.5-.2 1-.4 1.7-.4.5 0 1 .1 1.4.3a2 2 0 0 1 1.2 1.5v5.9h-1.6v-3.8c0-1-.1-1.6-.4-2-.2-.3-.6-.4-1.2-.4-.4 0-.8 0-1.1.2-.3.1-.6.3-.7.6-.2.2-.2.4-.3.7v4.7H178Zm15.3 0v-11.4h1.9V176h-1.9Zm4.8 0v-7.4h1.6v1.2c.4-.5.8-.9 1.2-1.1.5-.2 1-.4 1.7-.4.6 0 1 .1 1.4.3a2 2 0 0 1 1.2 1.5l.1 1.4v4.5h-1.7v-3.8c0-1-.1-1.6-.4-2-.2-.3-.6-.4-1.2-.4-.4 0-.8 0-1 .2-.4.1-.6.3-.8.6l-.3.7v4.7h-1.8Zm15.2-3.7c0-.8-.2-1.4-.5-1.8-.4-.4-.9-.7-1.5-.7-.7 0-1.2.3-1.5.7-.4.4-.6 1-.6 1.8s.2 1.4.6 1.9c.3.4.8.6 1.5.6.6 0 1-.2 1.4-.7.4-.5.6-1 .6-1.8Zm0-8.4h1.7V176h-1.7v-1a3 3 0 0 1-1 1 3 3 0 0 1-1.5.3 3 3 0 0 1-2.5-1c-.6-.8-.9-1.8-.9-3s.4-2.1 1-2.9a3 3 0 0 1 2.4-1 3 3 0 0 1 1.5.3c.5.3.8.6 1 1.1v-6Zm4.3 1.5c0-.3.1-.5.3-.8.2-.2.5-.3.8-.3.3 0 .5.1.7.3.2.2.3.5.3.8 0 .3 0 .5-.3.8a1 1 0 0 1-.7.3 1 1 0 0 1-.8-.4 1 1 0 0 1-.3-.7Zm.2 10.6v-7.4h1.7v7.4H218Zm11.6 0h-1.7v-1a3 3 0 0 1-1.1 1 3 3 0 0 1-1.4.3 3 3 0 0 1-2.5-1c-.6-.8-.9-1.8-.9-3s.4-2.1 1-2.9a3 3 0 0 1 2.4-1 3 3 0 0 1 1.5.3c.5.3.8.6 1 1.1v-1.2h1.7v7.4Zm-1.7-3.7c0-.8-.2-1.4-.5-1.8-.4-.4-.9-.7-1.5-.7-.7 0-1.2.3-1.5.7-.4.4-.6 1-.6 1.8s.2 1.4.6 1.9c.3.4.8.6 1.4.6.7 0 1.2-.2 1.5-.7.4-.5.6-1 .6-1.8Zm5-8h1.8v9h-1.8v-9Zm-.1 11c0-.3 0-.5.3-.7.2-.2.4-.3.7-.3.3 0 .5 0 .7.3.2.2.3.4.3.7 0 .3 0 .5-.3.7a1 1 0 0 1-.7.3 1 1 0 0 1-.7-.3 1 1 0 0 1-.3-.7Z" fill="#fff"/><g clip-path="url(#a)"><path d="M80.3 53.4s-8.3-3.3-15 8.2c-6.7 11.8 1.8 19.6 8.6 15 0 0 5.3 11.1 15.9 8.4 10.6-2.6 12.3-11.1 12.3-11.1s9.4.6 9.7-6.4c.2-7-6.7-13.2-6.7-13.2s-.4-17.5-11.8-17.4c-11.4.1-13 16.5-13 16.5Z" fill="#455A64"/><path d="m88.2 115.4 2.3-52.1 2.4 52h-4.7Z" fill="#263238"/><path d="m89.8 82.9-7.3-14.6L91 80.6l-1.2 2.3Z" fill="#263238"/><path d="M304 48.8s-18 39.9 11.4 39.9c29.3 0 10.3-41.2 10.3-41.2s6.8-3-1-25.3C316.8 0 313.3 0 310 0c-4.2 0-8 9.6-5.2 24.4 0 0-10.4 18.4-.9 24.4Z" fill="#37474F"/><path d="m318 115.1-2.8-60-2.9 60h5.7Z" fill="#263238"/><path d="m316.3 80.3-10.6-12.5 8.3 14 2.3-1.5Z" fill="#263238"/><path d="M121.6 59.5s15 33.4-9.5 33.4c-24.6 0-8.7-34.5-8.7-34.5s-5.7-2.5 1-21.2c6.5-18.6 9.4-18.6 12.2-18.7 3.4 0 6.7 8.1 4.3 20.5 0 0 8.7 15.5.7 20.5Z" fill="#37474F"/><path d="m110 115.1 2.3-50.4 2.4 50.4H110Z" fill="#263238"/><path d="m111.3 85.9 9-10.5-7 11.9-2-1.4Z" fill="#263238"/><path d="M46.8 57.3s-15.7 35 10 34.9c25.6 0 9-36.1 9-36.1s6-2.7-1-22.1c-7-19.5-10-19.5-12.9-19.5-3.6 0-7 8.5-4.4 21.4 0 0-9 16.2-.7 21.4Z" fill="#37474F"/><path d="m59 115.3-2.4-52.6-2.5 52.6h5Z" fill="#263238"/><path d="m57.6 84.8-9.4-10.9 7.4 12.3 2-1.4Z" fill="#263238"/><path d="M273.6 53.1s-8.3-3.3-15 8.3c-6.7 11.8 1.8 19.6 8.6 15 0 0 5.3 11 15.9 8.4 10.6-2.6 12.3-11.1 12.3-11.1s9.4.6 9.7-6.4c.2-7-6.7-13.3-6.7-13.3s-.4-17.4-11.8-17.3c-11.4.1-13 16.4-13 16.4Z" fill="#455A64"/><path d="m281.5 115.2 2.3-52.1 2.4 52h-4.7Z" fill="#263238"/><path d="M283 82.6 275.9 68l8.7 12.3-1.4 2.3Z" fill="#263238"/><path d="M331.8 142.2H1.2v3.6h330.6v-3.6Z" fill="#C7C7C7"/><path d="M24.4 142.2c.3.6.4 1.2.4 1.8 0 .6 0 1.2-.4 1.8-.3-.6-.4-1.2-.4-1.8 0-.6.1-1.2.4-1.8ZM50.2 142.2c.4.6.4 1.2.4 1.8 0 .6 0 1.2-.4 1.8-.3-.6-.3-1.2-.4-1.8 0-.6.1-1.2.4-1.8ZM76 142.2c.4.6.5 1.2.5 1.8 0 .6-.1 1.2-.4 1.8-.3-.6-.4-1.2-.4-1.8 0-.6 0-1.2.4-1.8ZM102 142.2l.3 1.8c0 .6 0 1.2-.4 1.8-.3-.6-.4-1.2-.4-1.8 0-.6.1-1.2.4-1.8ZM127.7 142.2c.4.6.4 1.2.4 1.8 0 .6 0 1.2-.4 1.8-.3-.6-.3-1.2-.3-1.8 0-.6 0-1.2.3-1.8ZM153.6 142.2c.3.6.4 1.2.4 1.8 0 .6-.1 1.2-.4 1.8-.3-.6-.4-1.2-.4-1.8 0-.6 0-1.2.4-1.8ZM179.4 142.2c.3.6.4 1.2.4 1.8 0 .6 0 1.2-.4 1.8-.3-.6-.4-1.2-.4-1.8 0-.6.1-1.2.4-1.8ZM205.2 142.2c.4.6.4 1.2.4 1.8 0 .6 0 1.2-.4 1.8-.3-.6-.3-1.2-.3-1.8 0-.6 0-1.2.3-1.8ZM231 142.2c.4.6.5 1.2.5 1.8 0 .6-.1 1.2-.4 1.8-.3-.6-.4-1.2-.4-1.8 0-.6 0-1.2.4-1.8ZM257 142.2l.3 1.8c0 .6 0 1.2-.4 1.8-.3-.6-.4-1.2-.4-1.8 0-.6.1-1.2.4-1.8ZM282.8 142.2c.3.6.3 1.2.3 1.8 0 .6 0 1.2-.3 1.8-.4-.6-.4-1.2-.4-1.8 0-.6 0-1.2.4-1.8ZM308.6 142.2c.3.6.4 1.2.4 1.8 0 .6-.1 1.2-.4 1.8-.3-.6-.4-1.2-.4-1.8 0-.6 0-1.2.4-1.8Z" fill="#263238"/><path d="m1 145.8 41.4-.2H290.6l41.4.2h-41.4l-41.4.1-82.7.1H83.7l-41.3-.1-41.4-.1ZM1 115.4h41.4l41.3-.1 82.8-.1h82.7l41.4.1 41.4.1-41.4.2H42.4L1 115.4Z" fill="#263238"/><path d="M87.3 120.9h57.2s-6.3-26.7-28.6-26.7-27.6 20.7-28.6 26.7Z" fill="#FFC727"/><path opacity=".2" d="M87.3 120.9h57.2s-6.3-26.7-28.6-26.7-27.6 20.7-28.6 26.7Z" fill="#000"/><path d="M253.3 123.7h57.1S304.2 97 281.8 97c-22.3 0-27.6 20.8-28.5 26.7Z" fill="#FFC727"/><path opacity=".2" d="M253.3 123.7h57.1S304.2 97 281.8 97c-22.3 0-27.6 20.8-28.5 26.7Z" fill="#000"/><path d="M74.3 72.2C73 74 70.9 95.5 70.8 96.3c-.2.7-2 4-2 4.7 0 .6-.4 10.2-.2 10.9l2 3.3c.3.3 8.4 7.3 9.3 7.4.9 0 9.3.2 9.4 0 .2-.2 1.2-26 26.6-26 25.4 0 25.1 27.4 25.6 27.5l114.3 2.7c0-4.2.3-29.1 25.3-29.1a24.4 24.4 0 0 1 24.7 23.2c.1 4.1-.6 8.7-.3 8.7.7 0 3.3.2 3.7 0 .5-.2 5.8-3.7 6.2-3.8.5-.2 3.5-.2 4.3-.4.7-.2 6-4.8 6-5 .2-.2.3-2 .4-2.2 0-.1 5.3-6.6 5.6-7.3.2-.8.3-6.7.3-7.3 0-.6-9.7-16.3-12-18-2.2-1.6-18.2-7.3-22.9-8.1-4.7-.8-30.5-4.7-31.4-5.4-1-.6-45-25.9-52.7-27.7-6.2-1.5-77.9.5-81.6.7-3.8.2-14.2 2.1-15.2 2.1s-12.5 0-13.2.2c-.6.4 0 3.1 1 3.6.8.5-27.6 17.8-29.7 21.2Z" fill="#FFC727"/><path d="M76 70.5c.2.3 4.7.4 5.1.2.5-.2 28.7-19 28.8-19.5 0-.3-5.3-.2-6-.2-.6 0-28.5 19-28 19.5Z" fill="#455A64"/><path d="M107.4 70.2c1.2 3.6 149.5 10.4 150.3 8.7.6-1.3-12.7-12-18.9-15.5-6.2-3.4-24-13.5-32.6-14.5-8.8-1-26.5-1-41.9-.7-15.3.3-33.3.7-39.7 3.4-5.6 2.4-18.2 15.8-17.2 18.6Z" fill="#263238"/><path d="M111.5 68.1c.4 1.4 33.1 4.9 71.5 6.7 38.4 1.8 57.3 2 57.8 1.9.5-.2-1.3-10.4-2-11.3-.6-.8-28.1-15-32.4-15.3-4.4-.4-27.7-.4-39.5-.2-11.7.2-36.3 1.6-40.4 3.3a53.8 53.8 0 0 0-15 15Z" fill="#455A64"/><g opacity=".1" fill="#fff"><path opacity=".1" d="m162.3 50-22 22-10.8-1 20.4-20.4 12.4-.6ZM240.7 74.5l-2.2 2.2c-2.2 0-6 0-11.6-.2L238.3 65l.5.3c.5.6 1.5 6 2 9.1ZM178.7 49.8l-23.4 23.4-5.5-.4 23-23h5.9ZM228.9 60l-16 16-5.8-.2L225 58.1l4 2ZM146 50.8l-19.8 19.8-1.5-.2L144.2 51h1.8ZM232.3 61.8l-14.5 14.4h-1.6l15-15 1 .6ZM211.5 51.9 188.3 75h-1.6l23.6-23.6 1.2.5ZM130.3 52.3 113.7 69l-1.4-.4 16-15.8 2-.4Z"/></g><path d="M132 52c.2 0 .3.3.1.6a338 338 0 0 1-8.3 17c-.2.5-.7.6-.8.6l10.6 1.2s-.7-.3-.5-1c0-.7 4-14.8 5.2-18.3.2-.5.7-.8.7-.8a43 43 0 0 0-7 .8ZM146 50.8s.2.1.2.5c0 3.3.4 20 0 21v.2l2 .1s-.2-.2-.2-.5a571.6 571.6 0 0 1-.2-21.4l-1.8.1ZM178.8 50.5c.3.7.7 22.5.7 23.2 0 .7-.8.9-.8.9l12.4.6s-.8-.3-1-.6l-4-24.2c0-.3.6-.6.6-.6h-8.6s.6.2.7.7Z" fill="#263238"/><path d="M76.5 75.2c-1.6.2-5 3.8-5.2 4.5-.3.8-1.2 5.8-.7 6.6.5.7 2.3 2.6 3.9 2.7 1.5 0 9.2-3.6 9.8-4.2.7-.6 1.2-4.4.4-5.7-.8-1.2-6.3-4.1-8.2-3.9Z" fill="#fff"/><path d="M84.3 84.8c-.6.6-8.3 4.2-9.8 4.2-1.2 0-2.6-1.2-3.4-2a5 5 0 0 0 3 1c1-.1 8-3.2 9-4 1-.9 1-4 .8-4.6 0-.6-4.7-3.6-4.7-3.6 2.3.9 5 2.5 5.5 3.3.8 1.3.3 5-.4 5.7Z" fill="#EBEBEB"/><path d="M70.1 103.5c-.4.4-.5 3.6 0 3.9.3.3 3 .3 3.4 0 .5-.3 1.8-2.6 1.7-3.4 0-.9-4.6-1-5-.5ZM298.5 86c1.3 2.1 11.3 6 15 6.6a54 54 0 0 0 10.9.5c.4-.4-3.5-5.8-5.5-7.2-2-1.3-12.1-4.6-15.1-4.5-3.1.1-6.7 2.3-5.3 4.5Z" fill="#fff"/><path d="M324.4 93c-.5.5-8.6 0-11-.4-3.6-.6-13.6-4.5-15-6.7-1.3-2.1 2.3-4.4 5.4-4.5h.7c-2.9 1-3.5 3.3-1.7 4.5 1.7 1.3 7.2 4.3 9.5 4.9 2.1.6 10 1.8 10.7 1.3.3-.2.4-.7.4-1.1.7 1 1.1 2 1 2Z" fill="#EBEBEB"/><g opacity=".2" fill="#000"><path opacity=".2" d="M87.3 100.7 86 97.3l-1.3-3.5-1.3-3.5-1-3.6 1.4 3.5 1.3 3.4 1.2 3.5a97 97 0 0 1 1.1 3.6ZM69.7 100.7h14.8l7.4.2c2.5 0 5 .2 7.4.3H84.5l-7.4-.2-7.4-.3ZM186 76.7l.9 6 .3 3 .2 1.5v1.6l-.1 12-.1 6.1v4.6l-.2 1.5-.5 6-.5 6 .3-6 .4-6v-3.1l.1-3v-6l.3-12.1v-1.5l-.1-1.6-.3-3-.7-6Z"/><path opacity=".2" d="m252.6 79.5 1 6 .5 3 .1.8.1.7v1.6a541.8 541.8 0 0 1-.4 15.3c0 1-.3 2-.6 3a85.2 85.2 0 0 1-4.3 11.4l-.4.7-.4.6-.5.7-.2.3h-.5l-3 .3h-24.5a2560.2 2560.2 0 0 1-49-1c-4-.2-8-.3-12.2-.7-.5 0-1 0-1.5-.2l-.7-.4-.7-.3-2.8-1.2c-1-.5-1.8-1-2.6-1.8-.7-.7-1.2-1.6-1.8-2.4A419.4 419.4 0 0 1 135 95.3l-6.4-10.5-.8-1.3-.2-.3V83l-.1-.2v-.7c-.2-1-.2-2-.3-3.1v-.8l.2-.7.5-1.5-.5 1.5-.1.7v.8l.2 3v.8l.1.2.1.2.2.3.8 1.3 6.4 10.4c4.4 6.9 8.7 13.8 13.3 20.5l1.8 2.4c.8.7 1.6 1.2 2.5 1.7l2.8 1.2.7.3.7.4 1.5.2a1582.2 1582.2 0 0 0 61.1 1.6c8.2.1 16.3.2 24.5 0h3l.3-.1.2-.3.5-.6.4-.7.4-.6a83.3 83.3 0 0 0 4.4-11.4c.2-1 .5-2 .5-3l.1-3 .4-12.2v-2.3l-.2-.8-.5-3-1-6ZM305 89.8c-1 1-2.2 1.7-3.3 2.5l-3.6 2.2-3.6 2-3.7 2 3.5-2.3 3.6-2.1 3.6-2.1 1.8-1c.6-.4 1.2-.7 1.7-1.2Z"/><path opacity=".2" d="m133.3 101.8 16 .4 15.8.5 31.8 1 31.8 1 15.9.6 15.8.6-15.9-.4-15.8-.5-31.8-1-31.8-1-15.9-.6-15.9-.6ZM132.4 79h-.8v.4a8.1 8.1 0 0 0 0 2.1h.2l1.2.1 5 .1 2.5.1H142.2v-.1l.2-.3a6.8 6.8 0 0 0-.1-2l-.2-.1c-.8-.2-1.7-.2-2.5-.3h2.5c0 .1.2 0 .3.2.2.1.1.2.2.3v.7a6.9 6.9 0 0 1 0 1.6s0 .2-.2.3h-.2l-.2.1h-4c-1.7 0-3.3-.1-5-.3h-1.3l-.1-.1h-.1l-.1-.2-.1-.3v-.6a8.5 8.5 0 0 1 .2-1.6l.1-.1h.8ZM193.2 80.5h-.8v.4a8 8 0 0 0 0 2.1h.2l1.2.1 5 .1 2.5.1H203l.1-.1v-.3a6.7 6.7 0 0 0 0-2l-.2-.1c-.8-.2-1.7-.2-2.5-.3h2.5c.1.1.2 0 .3.2.2.1.2.2.2.3v.7a6.9 6.9 0 0 1 0 1.6s0 .2-.2.3h-.2l-.2.1h-4c-1.7 0-3.3-.1-5-.3h-1.2l-.2-.1h-.1l-.1-.2v-.3l-.1-.6a8.5 8.5 0 0 1 .2-1.6l.1-.1h.8Z"/></g><path d="M132.1 138.8a23.6 23.6 0 1 0-33.4-33.4 23.6 23.6 0 0 0 33.4 33.4Z" fill="#263238"/><path d="M127.6 134.3a17.3 17.3 0 1 0-24.4-24.4 17.3 17.3 0 0 0 24.4 24.4Z" fill="#DBDBDB"/><path d="M115.4 138a16 16 0 1 0 0-31.8 16 16 0 0 0 0 31.8Z" fill="#A6A6A6"/><path d="M118 118.1h-5c1.6-2.4-4.3-11-4.3-11l2.7-.8c1.7 3 2.6 3.9 4 3.9 1.5 0 2.3-.9 4-3.9l2.7.9s-5.9 8.5-4.2 11ZM112.5 118.4l-1.5 4.8c-1.8-2.4-11.7.6-11.7.6V121c3.3-.7 4.4-1.3 4.9-2.6.4-1.4-.1-2.5-2.5-5.1l1.7-2.2s6.3 8.2 9.1 7.3ZM111.1 123.7l4 3c-2.7.9-3 11.2-3 11.2l-2.6-.8c.3-3.5.1-4.7-1-5.5-1.2-.9-2.4-.7-5.6.7l-1.6-2.2s9.8-3.5 9.8-6.4ZM115.7 126.6l4-3c0 3 9.9 6.5 9.9 6.5l-1.7 2.2c-3.1-1.4-4.4-1.6-5.5-.7-1.2.8-1.4 2-1 5.5l-2.7.8s-.2-10.3-3-11.3ZM119.9 123.2l-1.6-4.8c2.9.9 9.2-7.3 9.2-7.3l1.6 2.2c-2.3 2.6-2.9 3.7-2.4 5 .4 1.4 1.5 2 5 2.7l-.1 2.8s-10-3-11.7-.6Z" fill="#DBDBDB"/><path d="M115.4 126.6a4.6 4.6 0 1 0 0-9.2 4.6 4.6 0 0 0 0 9.2Z" fill="#DBDBDB"/><path d="M290.2 143.9a23.6 23.6 0 1 0-18.6-43.5 23.6 23.6 0 0 0 18.6 43.5Z" fill="#263238"/><path d="M297.7 126a17.3 17.3 0 1 0-33.6-7.8 17.3 17.3 0 0 0 33.6 7.8Z" fill="#DBDBDB"/><path d="M280.9 138a16 16 0 1 0 0-31.8 16 16 0 0 0 0 31.8Z" fill="#A6A6A6"/><path d="M283.4 118.1h-5c1.7-2.4-4.2-11-4.2-11l2.6-.8c1.8 3 2.6 3.9 4 3.9 1.5 0 2.4-.9 4.1-3.9l2.7.9s-6 8.5-4.2 11ZM278 118.4l-1.6 4.8c-1.8-2.4-11.7.6-11.7.6V121c3.4-.7 4.5-1.3 5-2.6.4-1.4-.2-2.5-2.5-5.1l1.6-2.2s6.3 8.2 9.2 7.3ZM276.6 123.7l4 3c-2.8.9-3 11.2-3 11.2l-2.7-.8c.4-3.5.2-4.7-1-5.5-1.1-.9-2.4-.7-5.5.7l-1.7-2.2s9.8-3.5 9.9-6.4ZM281.1 126.6l4-3c.1 3 9.9 6.5 9.9 6.5l-1.6 2.2c-3.2-1.4-4.4-1.6-5.6-.7-1.1.8-1.3 2-1 5.5l-2.6.8s-.3-10.3-3-11.3ZM285.3 123.2l-1.5-4.8c2.8.9 9.1-7.3 9.1-7.3l1.7 2.2c-2.4 2.6-3 3.7-2.5 5 .5 1.4 1.6 2 5 2.7v2.8s-10-3-11.8-.6Z" fill="#DBDBDB"/><path d="M280.9 126.6a4.6 4.6 0 1 0 0-9.2 4.6 4.6 0 0 0 0 9.2Z" fill="#DBDBDB"/><path d="M235.4 67.8c-.9 1-.8 8.6-.2 9.2.6.7 9.2 1.2 9.9-3.6.7-4.7-8.4-6.9-9.7-5.6Z" fill="#FFC727"/><path d="M266.6 72.4h-7c-18-12-43-23.8-43-23.8l4.2-1a894.2 894.2 0 0 1 45.8 24.8Z" fill="#455A64"/><g opacity=".5" fill="#fff"><path opacity=".5" d="M87.3 106.7a33.3 33.3 0 0 1 28.4-15.5l2.1.1h1l1.1.2 2.1.3 2.1.5a26.1 26.1 0 0 1 14 9 39.7 39.7 0 0 0-.2.2c-1.8-2.2-4-4-6.3-5.5-4.7-3-10.3-4.2-15.9-4.2a34 34 0 0 0-22.9 8.6c-2 1.8-4 4-5.5 6.3ZM253 106.7a33.4 33.4 0 0 1 28.4-15.5l2.1.1h1l1.1.2 2.1.3 2 .5a26.1 26.1 0 0 1 14.1 9c1.8 2.1 3.2 4.6 4.4 7a39.8 39.8 0 0 0-4.6-6.9c-1.8-2.1-4-4-6.3-5.4-4.7-3-10.4-4.2-16-4.2a34 34 0 0 0-22.8 8.6c-2 1.8-4 4-5.5 6.3ZM90.8 67.5a499.4 499.4 0 0 1 24.1-17.6 13.9 13.9 0 0 1 1.7-.7 86 86 0 0 1 17.2-3.2h7l-7 .3c-2.3.1-4.6.3-6.9.9a232.6 232.6 0 0 0-11 2.8l-.7.4-1.5 1c-3.9 2.5-7.7 5.2-11.5 8l-11.4 8Z"/></g><path opacity=".1" d="M274.2 98.4c-18.1 4.2-18.4 24.7-18.4 28.4l-114.3-2.7c-.4 0-.3-18-13.7-24.8a34 34 0 0 1 16.7 20.7c.3 1.1 17 2.9 45.2 3.8 28.4.9 53 .3 57.7-.3 4.6-.7 10.1-25.2 26.8-25ZM331.7 110.9c-.3.7-5.6 7.2-5.6 7.4l-.3 2.1c-.1.2-5.4 4.8-6.1 5-.8.2-3.8.2-4.3.4-.4 0-5.7 3.6-6.2 3.8-.4.2-3 0-3.7 0-.3 0 .4-4.5.3-8.7a24.8 24.8 0 0 0-13.2-20.5c4.7 1 12.5 7.3 15.6 13.9 3.2 6.6 2.4 7 3.1 7.8.7.8 3.2-.8 4.3-1 1.1-.3 4.8-.4 6.2-.7 1.4-.3 1.6-2.8 2.6-3.4a54 54 0 0 0 7.3-6.1Z" fill="#000"/><path opacity=".3" d="M108.2 80.6a5.1 5.1 0 1 1 0-.1Z" fill="#000"/><path opacity=".3" d="M94.4 85.5c-.9 0-1.7-.6-2.4-1.5a6 6 0 0 1-1-3.4 6 6 0 0 1 1-3.4c.7-1 1.5-1.5 2.4-1.5 1 0 1.8.5 2.5 1.4.5.6.8 1.5 1 2.4a6 6 0 0 0-1-2.5c-.6-1-1.5-1.5-2.5-1.5s-1.9.5-2.5 1.4c-.7 1-1.1 2.3-1.1 3.7 0 1.4.4 2.7 1 3.7.7 1 1.7 1.5 2.6 1.4 1 0 1.9-.6 2.5-1.5.6-.8 1-2 1-3.1a6 6 0 0 1-1 3c-.7 1-1.6 1.5-2.5 1.4Zm3.5-6Z" fill="#000"/><path opacity=".3" d="M98 80.6v.5a6 6 0 0 1-1.1 3c-.7 1-1.6 1.5-2.5 1.4-.9 0-1.7-.6-2.4-1.5a6 6 0 0 1-1-3.4 6 6 0 0 1 1-3.4c.7-1 1.5-1.5 2.4-1.5 1 0 1.8.5 2.5 1.4a6 6 0 0 1 1 3.5Z" fill="#000"/><path d="M106.2 80.6c0 .8-.3 1.6-1 2.2a3.2 3.2 0 0 1-4.4 0c-.6-.5-1-1.4-1-2.2a3.2 3.2 0 0 1 3.3-3.2 3.2 3.2 0 0 1 3 3.2Z" fill="#263238"/><path d="M55.8 142.2V69.7L43.4 26.5H33.1v115.7h22.7Z" fill="#FFC727"/><path opacity=".1" d="M55.8 142.2V69.7L43.4 26.5H33.1v115.7h22.7Z" fill="#000"/><path d="M24 142.2V69.7L11.4 26.5H1.2v115.7H24Z" fill="#FFC727"/><path opacity=".1" d="M24 142.2V69.7L11.4 26.5H1.2v115.7H24Z" fill="#000"/><path opacity=".1" d="M19.7 69.7v72.5H1.2V26.5h6l12.5 43.2Z" fill="#000"/><path d="M55.8 69.7H24v72.5h32V69.7ZM24 69.7l-2-6.5h24l9.8 6.5H24Z" fill="#FFC727"/><path opacity=".3" d="m24 69.7-2-6.5h24l9.8 6.5H24Z" fill="#fff"/><path d="m39 39.3 4.4-12.8H11.5l3.7 12.8H39Z" fill="#FFC727"/><path opacity=".1" d="m39 39.3 4.4-12.8H11.5l3.7 12.8H39Z" fill="#fff"/><path d="m46 63.2-7-24H15.2l6.9 24h24Z" fill="#FFC727"/><path opacity=".2" d="m46 63.2-7-24H15.2l6.9 24h24Z" fill="#000"/><path d="M41.1 56.3 36.8 42h-18l4.1 14.4h18.2Z" fill="#fff"/><path d="m29.4 58.9-.3-1.1h-5.7l.3 1h5.7ZM42 58.9l-.3-1.1h-5.8l.3 1H42ZM39.3 43l-.3-1h-1.3l.3 1h1.3ZM39.9 45.2l-.3-1.1h-1.3l.3 1h1.3ZM41.1 49.5l-.3-1.1h-1.3l.3 1H41Z" fill="#263238"/><path d="m43.5 75.8-6.2 8h3.8L39 91l5.9-8.8H41l2.4-6.3Z" fill="#fff"/><path d="M11.5 69.7H8v7.1h3.5v-7.1Z" fill="#263238"/><path d="M9.8 73.3h-2c-1.8 0-3.2 1.4-3.2 3.6v61.5c0 1.2 1.4 2.7 3.2 2.7h83.7c1.8 0 3.2-1.5 3.2-3.2V83.8c0-1.8 1.4-3.2 3.1-3.2h5.2" stroke="#263238" stroke-width="5" stroke-miterlimit="10"/><path d="M10 71.8H7.3v3H10v-3Z" fill="#fff"/><path d="M10.8 71.3H8.5v4h2.3v-4ZM102.4 79.2h-2.5V82h2.5v-3Z" fill="#fff"/><path d="M103 83a2.5 2.5 0 1 0 0-4.8 2.5 2.5 0 0 0 0 4.9Z" fill="#fff"/><path d="m176 104.1-12.3 10a78.9 78.9 0 0 0-5.4 4.5l-.6.8c.1 1.1 14.7 20.5 15.4 21 .8.5 2.3-1.6 2.3-2.8 0-1.2-2.2-11-2.2-11l12.2-10.1-9.3-12.4Z" fill="#F7A9A0"/><path d="M175.4 137.6c0 1.2-1.5 3.3-2.3 2.8-.7-.5-15.3-19.9-15.4-21l.6-.7 2.7-2.4c3 5.6 11.6 17.3 12.8 18.5 1 1 .6-2 .3-4 .6 2.9 1.3 6.2 1.3 6.8Z" fill="#263238"/><path d="M182.7 92.2c-.8 4.3-18.7 21.6-18.7 21.6l12.4 14.4s25.4-25.4 24.1-35A425.7 425.7 0 0 0 187 51.7h-14.4s11 36.4 10.1 40.6Z" fill="#37474F"/><path d="m177.9 124.7-2.9-3.5a191 191 0 0 0-7.2-8.3c.6 1 6.2 7.5 7 8.5l3 3.4ZM185.2 90.8A118.6 118.6 0 0 0 183 81a311.2 311.2 0 0 0-8-27.1l3.9 12.6a362.7 362.7 0 0 1 5.5 22.3c.3 1 .6 2.2.6 3.3 0 1-.3 2-.8 3l-1.8 2.4a575.4 575.4 0 0 1-13.2 15 293.6 293.6 0 0 0 14.5-16.2 10 10 0 0 0 1.4-2.5c.4-1 .3-2 0-3Z" fill="#263238"/><path d="m184 51.6-1.4 38a463 463 0 0 0-10-38H184Z" fill="#263238"/><path d="m178.3 121.9 3.1 15a80 80 0 0 0 .6 8c1 .7 25.1 1 26 .8.8-.3.1-2.7-.8-3.5-1-.8-10.1-5-10.1-5l-3.3-15.1-15.5-.2Z" fill="#F7A9A0"/><path d="M208 145.7c-.9.2-25-.1-26-.7l-.3-1-.2-4.2c5.7 1.4 21.1 2.7 23 2.2 1.2-.3-.2-1.2-1.7-2.1l4.4 2.3c1 .8 1.6 3.2.8 3.5Z" fill="#263238"/><path d="M185.6 51.6c0 .3-1.5 12.6-1.9 13L180 67s6.9 21.3 8.7 28.5c2.6 10.3 9 41.3 9 41.3h-16.9s-5.1-29.5-7.4-39.4c-1.9-8.4-9.2-33.7-9.2-33.7-1.6-6.7.6-12.2.6-12.2h20.8Z" fill="#37474F"/><path d="M197 133.6h-4.5c-1.3 0-9.8 0-11 .3 1.2.2 9.7 0 11 0 2.6 0 1.9-.1 4.5-.2ZM184.5 64a32.5 32.5 0 0 0-4.6 3.1l4.7-3-.1-.2ZM183.2 52.3h-.1l.6 5.7c0 .9 0 5.8-1.5 5.7-.3 0-.4-.3-.5-.7v-1.5a38.8 38.8 0 0 0-1-8.7h-.2c.4 2.6.8 5.2.8 8 0 1.2-.3 3.2 1 3.2 1.4 0 1.7-3.3 1.8-4.2 0-2.5-.3-5.1-1-7.5Z" fill="#263238"/><path d="m182.3 63.8-.2 1v.9l.3-.9.2-1c0-.2-.3-.2-.3 0ZM179 124.7l-.2-1.1-.4-2.3a226.5 226.5 0 0 0-3.7-18.3c0-.1-.2 0-.2 0l.8 4.6 1 4.5c.5 3 1 5.9 1.7 8.9l.5 2.5.2 1.2.3 1.3v-1.3ZM190.4 102c-.5-2.8-1.3-5.6-2-8.3-1.6-5.6-3.4-11-5.2-16.4L180 67c.3 1.5 2 7.8 2.5 9.2l2.6 8.3a303.3 303.3 0 0 1 5.7 21.2l1 4.6a87 87 0 0 0-1.4-8.4ZM180 116.6a286.6 286.6 0 0 0-12.4-47.2c-.9-2.4-1.7-4.9-2.3-7.4-.6-2.5-.9-5.2-.3-7.7l.6-1.9c-2 4.7-.8 9.9.8 14.5l2.6 7.7a300.3 300.3 0 0 1 10.2 39.7l2.7 16.2.3 2.1c-.6-5.3-1.3-10.7-2.2-16Z" fill="#263238"/><path d="M180.3 31.2c1.3 3 11.2 17.7 16.4 17.7 5.3 0 14.2-9.7 15.6-11 1.7-1.5-6.5-9.7-8-7.9-2.3 3.2-6.7 7.4-7.7 7.4-1.4 0-8.9-6-13.7-9.2-2.8-2-4-.4-2.6 3Z" fill="#F7A9A0"/><path d="M217 32.6c-1 2-4.6 5.6-5.8 6.1-1.2.5-7.4-5.5-7.3-6.8.2-1.3 4-8.2 6-9.2 2.2-1 8.1 7.7 7.1 9.9Z" fill="#F7A9A0"/><path d="M204.4 30.6s.2-3-.6-5.5c-.6-2.2-1.7-5.3-.6-5.7 2.3-.7 5.2 7 5.2 7s.7 3.7-1.5 4.6c-1.4.6-2.5-.4-2.5-.4Z" fill="#F7A9A0"/><path d="M207 25c.2 1.2 1.6.3 1.6.3s-1.7 1.7-1 3c.5 1 2.1 0 2.3-.1-.1 0-1.6 1.7-.8 2.8.7 1.2 2.2-.2 2.2-.3 0 .2-.7 1.6 0 2.4 1.4 1.2 3.3-2.5 4.7-3l1 2.5s1.9-3.6 1.2-5.4c-.3-1-1.3-1-1.3-1s.7-1 .1-2c-.2-.4-1.3-.3-1.3-.3s.6-1 0-1.7c-.4-.6-1.3-.5-1.3-.5s0-1-.6-1.6c-1.3-1-7 2.2-6.7 4.9Z" fill="#F7A9A0"/><path d="M214.2 21.7c-2.2.6-4.3 1.9-5.7 3.7 0 0 0 .1 0 0 1.8-1.5 3.6-2.7 5.7-3.7ZM215.8 23.8c-2.3.6-4.7 2.2-6 4.4 0 0 0 .2 0 0 1-1.3 4-3.5 6-4.4ZM211.3 31a14.7 14.7 0 0 1 5.5-4.7 9.7 9.7 0 0 0-3.5 1.9c-1 .7-1.6 1.6-2 2.7Z" fill="#263238"/><path d="M208.5 25.3s.1 0 0 .2c-.2.2-1.3 2.1-.8 2.8.4.4 1.4.2 1.7 0l.8-.6-.6.8-.5 1.2c-.2.4-.2.9 0 1.2.3.4.6.5 1 .4.4-.1.8-.4 1-.7l1-.8-.6 1-.3 1v.9l.7.4.9-.3 1.5-1.3.8-.8.9-.5-.8.6-.7.8L213 33a2 2 0 0 1-1 .5 1 1 0 0 1-1-.7 2 2 0 0 1-.2-1l.4-1.1.3.2a3 3 0 0 1-1.3.8c-.2.1-.5.1-.8 0-.3-.1-.5-.3-.6-.6-.3-.4-.3-1-.1-1.5.1-.4.3-.9.6-1.3l.3.3c-.4.3-1.5.6-2.2 0-.8-1 .8-3 1.1-3.3Z" fill="#263238"/><path d="m208.6 25.3-.8.2c-.2 0-.4-.1-.5-.3l-.1-.6v-.8a2 2 0 0 0-.3.7l.1 1 .4.2h.5l.7-.4Z" fill="#263238"/><path d="m185.2 40 3.5-8.2s-3.6-2.7-5.8-4c-3-1.6-4.3-.9-2.9 3 1 2.6 5.2 9.3 5.2 9.3Z" fill="#DBDBDB"/><path d="M179.8 29c0 .2 0 .3-.2.3v-.6s.2.1.2.3Zm2.8-.3a.3.3 0 1 0 0 .6.3.3 0 0 0 0-.6Zm0 4.8a.3.3 0 1 0 0 .6.3.3 0 0 0 0-.6Zm3.1 0a.3.3 0 1 0 0 .6.3.3 0 0 0 0-.6Zm-4.6-2.4a.3.3 0 1 0 0 .6.3.3 0 0 0 0-.6Zm3 0c-.1 0-.3.1-.3.3 0 .2.2.3.4.3.1 0 .3-.1.3-.3 0-.2-.2-.3-.3-.3Zm3.2 0a.3.3 0 1 0 0 .6.3.3 0 0 0 0-.6Zm-1.6 7.2c-.2 0-.3.2-.3.3 0 .2.1.3.3.3l.2-.5h-.2Zm-1.5-2.4a.3.3 0 1 0 0 .6.3.3 0 0 0 0-.6Z" fill="#fff"/><path d="m187.8 33.8-2.6 6.3s-4.2-6.7-5.1-9.3c-.7-1.8-.8-2.9-.4-3.4l8.1 6.4Z" fill="#A6A6A6"/><path d="M184.6 38.4a63 63 0 0 1 2-5.3l.9-1.7-.7 1.8-.7 1.8-1.5 3.5Z" fill="#263238"/><path d="m187.2 44.2.7 8.3s-18.4-.2-23.4-.8c0 0 4-18 9.6-23.5 2.8-2.8 6-2.4 7.9-.3.5.6 6.1 7.6 6.6 10.7.5 2.7-1.4 5.6-1.4 5.6Z" fill="#DBDBDB"/><path d="M185.8 44.7a8 8 0 0 0-1.8 0h-.9l-1 .3h1.1l.8-.1a71.7 71.7 0 0 1 1.8-.2ZM186 43.4c-1.3.1-2.6.3-4 .7-1.3.4-2.6.9-4 1v.1l2-.2 2-.4c1.3-.3 2.7-.8 4-1v-.2Z" fill="#263238"/><path d="M173.6 29c0 .2-.1.3-.3.3h-.2l.4-.5.1.2Zm2.8-.3a.3.3 0 1 0 0 .6.3.3 0 0 0 0-.6Zm3.1 0a.3.3 0 1 0 0 .6.3.3 0 0 0 0-.6Zm3.1 0a.3.3 0 1 0 0 .6c.2 0 .3 0 .3-.2s-.2-.3-.3-.4Zm-4.7-2.4a.3.3 0 1 0 0 .6.3.3 0 0 0 0-.6Zm-7.4 7.4-.2.4c.1 0 .2-.1.2-.3v-.1Zm2.8-.2a.3.3 0 1 0 0 .6.3.3 0 1 0 0-.6Zm3 0a.3.3 0 1 0 0 .6.3.3 0 0 0 0-.6Zm3.2 0a.3.3 0 1 0 0 .6c.2 0 .3-.1.3-.3 0-.1-.1-.3-.3-.3Zm3.1 0a.3.3 0 1 0 0 .6.3.3 0 0 0 0-.6Zm3.1 0a.3.3 0 1 0 0 .6.3.3 0 0 0 0-.6ZM172 31.1l-.3.6h.1c.2 0 .4-.1.4-.3l-.2-.3Zm3 0c-.2 0-.4.1-.4.3 0 .2.2.3.3.3a.3.3 0 1 0 0-.6Zm3 0c-.1 0-.3.1-.3.3 0 .2.2.3.3.3a.3.3 0 1 0 0-.6Zm3.2 0a.3.3 0 1 0 0 .6.3.3 0 0 0 0-.6Zm3 0c-.1 0-.3.1-.3.3 0 .2.2.3.4.3.1 0 .3-.1.3-.3 0-.2-.2-.3-.3-.3Zm-14 7.2a.3.3 0 1 0 0 .7.3.3 0 0 0 0-.7Zm3.2 0a.3.3 0 1 0 0 .7.3.3 0 0 0 0-.7Zm3 0a.3.3 0 1 0 0 .7.3.3 0 0 0 0-.7Zm3.2 0a.3.3 0 1 0 0 .7.3.3 0 0 0 0-.7Zm3.1 0a.3.3 0 1 0 0 .7.3.3 0 0 0 0-.7Zm3.1 0a.3.3 0 1 0 0 .7.3.3 0 0 0 0-.7Zm3 .3-.1-.2-.1.2c0 .2 0 .3.2.3v-.3Zm-17-2.7a.3.3 0 1 0 0 .6.3.3 0 0 0 0-.6Zm3.1 0a.3.3 0 1 0 .4.3c0-.1-.2-.3-.4-.3Zm3.1 0a.3.3 0 1 0 0 .6.3.3 0 0 0 0-.6Zm3.2 0a.3.3 0 1 0 0 .6.3.3 0 0 0 0-.6Zm3 0a.3.3 0 1 0 0 .6.3.3 0 1 0 0-.6Zm3.2 0a.3.3 0 1 0 0 .6.3.3 0 0 0 0-.6ZM167 43.1a.3.3 0 1 0 0 .7.3.3 0 0 0 0-.7Zm3 0a.3.3 0 1 0 .4.3c0-.1-.1-.3-.3-.3Zm3.2 0a.3.3 0 1 0 0 .7.3.3 0 0 0 0-.7Zm3 0a.3.3 0 1 0 0 .7.3.3 0 0 0 0-.7Zm3.2 0a.3.3 0 1 0 .3.3c0-.1-.1-.3-.3-.3Zm3.1 0a.3.3 0 1 0 0 .7.3.3 0 0 0 0-.7Zm3.1 0a.3.3 0 1 0 0 .7.3.3 0 0 0 0-.7Zm-17-2.4a.3.3 0 1 0 0 .7.3.3 0 0 0 0-.7Zm3 0a.3.3 0 1 0 .4.3c0-.1-.2-.3-.4-.3Zm3.1 0a.3.3 0 1 0 0 .7.3.3 0 0 0 0-.7Zm3.1 0a.3.3 0 1 0 0 .7.3.3 0 0 0 0-.7Zm3.2 0a.3.3 0 1 0 0 .7.3.3 0 0 0 0-.7Zm3 0a.3.3 0 1 0 .4.3l-.3-.3Zm3.2 0a.3.3 0 1 0 0 .7.3.3 0 0 0 0-.7ZM167 48a.3.3 0 1 0 .3.4c0-.2-.1-.4-.3-.4Zm3 0a.3.3 0 1 0 0 .7.3.3 0 0 0 0-.7Zm3.2 0a.3.3 0 1 0 0 .7.3.3 0 1 0 0-.7Zm3 0a.3.3 0 1 0 0 .7.3.3 0 0 0 0-.7Zm3.2 0a.3.3 0 1 0 0 .7.3.3 0 1 0 0-.7Zm3.1 0a.3.3 0 1 0 0 .7.3.3 0 0 0 0-.7Zm3.1 0a.3.3 0 1 0 0 .7.3.3 0 0 0 0-.7Zm-17-2.4a.3.3 0 1 0 0 .7.3.3 0 0 0 0-.7Zm3 0a.3.3 0 1 0 0 .7.3.3 0 0 0 0-.7Zm3.1 0a.3.3 0 1 0 .4.3c0-.1-.2-.3-.4-.3Zm3.1 0a.3.3 0 1 0 0 .7.3.3 0 0 0 0-.7Zm3.2 0a.3.3 0 1 0 0 .7.3.3 0 0 0 0-.7Zm3 0a.3.3 0 1 0 0 .7.3.3 0 0 0 0-.7Zm3.2 0c-.2 0-.4.2-.4.3 0 .2.2.4.4.4v-.7Zm-21.8 4.8a.3.3 0 1 0 0 .7.3.3 0 0 0 0-.7Zm3.1 0a.3.3 0 1 0 0 .7.3.3 0 0 0 0-.7Zm3.1 0a.3.3 0 1 0 .4.4c0-.2-.2-.4-.4-.4Zm3.1 0a.3.3 0 1 0 0 .7.3.3 0 0 0 0-.7Zm3.1 0a.3.3 0 1 0 0 .7.3.3 0 0 0 0-.7Zm3.2 0a.3.3 0 1 0 0 .7.3.3 0 0 0 0-.7Zm3 0a.3.3 0 1 0 .4.4c0-.2-.2-.4-.3-.4Zm3.2 0a.3.3 0 1 0 0 .7.3.3 0 0 0 0-.7Z" fill="#fff"/><path d="M173.4 28.2c-5.3 4-16.7 14-15.1 17.5A46.4 46.4 0 0 0 172 59.8c1.2.8 8.5-7.4 7.5-8.5-1.2-1.3-10.4-7.4-10-8.2 0-.5 4-6.7 6.6-11.8 3-5.9-1-4.4-2.8-3Z" fill="#F7A9A0"/><path d="M175 49.3h7.1c1.6.1 4.3.5 5.4 1 1.7.9 8.2 5.5 7 7.1-.9 1.5-6-3.2-6-3.2s5.6 4.2 4 5.8c-1.4 1.5-6.5-4.6-6.5-4.6s5.6 4.6 3.8 5.9c-1.3 1-6.2-4.2-6.2-4.2s4.8 3.9 3.4 5c-1.5 1.2-6.3-3.3-6.3-3.3-3.9 2.2-7.2 2-9 .8-.3-.3 3.4-10.3 3.4-10.3Z" fill="#F7A9A0"/><path d="M187 52.8c4.3 2.8 5.5 5.5 5.5 5.5a30.2 30.2 0 0 0-4-4l-1.6-1.5ZM184.7 54.8a17.6 17.6 0 0 1 4.7 4 252.4 252.4 0 0 0-4.7-4ZM182.7 56.4a13.1 13.1 0 0 1 3.5 3.3c-1.2-1.1-2-2-3.5-3.2 0 0 0-.1 0 0Z" fill="#263238"/><path d="m165.4 34.1 8.8 2.3s2.1-4 3-6.3c1.2-3.2.3-4.3-3.3-2.4-2.4 1.3-8.5 6.4-8.5 6.4Z" fill="#DBDBDB"/><path d="M173.6 29a.3.3 0 1 1-.6 0 .3.3 0 0 1 .6 0Zm2.8-.3a.3.3 0 1 0 0 .6.3.3 0 0 0 0-.6Zm-9.3 4.8a.3.3 0 1 0 0 .6.3.3 0 0 0 0-.6Zm3 0a.3.3 0 1 0 .4.3c0-.1-.1-.3-.3-.3Zm3.2 0a.3.3 0 1 0 0 .6.3.3 0 0 0 0-.6Zm-4.4-2.2-.5.4h.2c.2 0 .3-.1.3-.3v-.1Zm2.8-.2a.3.3 0 1 0 .4.3c0-.2-.2-.3-.4-.3Zm3.1 0c-.1 0-.3.1-.3.3 0 .2.2.3.3.3a.3.3 0 1 0 0-.6Z" fill="#fff"/><path d="m173 36.1 1.1.3.8-1.4.4-.7.4-.8-.3.8-.4.7-.7 1.5a8.7 8.7 0 0 1-1.2-.4Z" fill="#263238"/><path d="M167 33.3a64.4 64.4 0 0 1 5.5 1.3l1.8.6-1.9-.5a127.1 127.1 0 0 0-5.4-1.4Z" fill="#263238"/><path d="M176.7 27.5c.1.4 2.3 2.8 4 2.5.7-.1.3-3.3.3-3.3v-.3l.4-3.4-4.2-2-.6-.3v2.1l-.1.2v1.5l.2 3Z" fill="#F7A9A0"/><path d="M176.5 22.8a6.8 6.8 0 0 0 4.5 3.6l.4-3.4-4.2-2-.6-.3v2.1ZM183.7 22.8l.2.5c0 .7-.4 1.4-.9 1.9s-1.2.9-1.6 1.6c-.1.2-.2.6-.1.8 0 .4.3.6.6.7.3.2.7.3 1 .6 0 .3 0 .6-.2 1-.3.6-1.2.8-1.7 1.3-.6.4-1.1 1.1-1.3 1.8a3.7 3.7 0 0 0 .4 3.1l.7 1c.3.3.4.7.4 1-.1.3-.9 1.1-2.2 1.3-.1 0 0 .2 0 .2l.6.1a5.2 5.2 0 0 0 5.6-4c0-.6.1-1 .3-1.5l.8-1c.6-.6 1.4-1 1.9-1.6.5-.6.8-1.3 1-2 .2-1.5-.2-3-1.2-4.3-.9-1.2-4.3-2.6-4.3-2.5Z" fill="#263238"/><path d="M183.7 22.9c.2.3.3.6.2 1 0 .2-.1.5-.3.7-.3.6-.9 1-1.4 1.3-.5.3-1 .7-1.2 1.3 0 .3-.1.5 0 .8 0 .3.2.5.5.7.4.3 1 .5 1.1 1.1.1.6-.5 1-.9 1.4-1 .8-2.4 1.7-2.4 3.1 0 .8.4 1.5.8 2.2.2.4.6 1 .4 1.6.1-.6-.3-1.2-.6-1.6a5 5 0 0 1-.7-1.8c-.1-.6 0-1.3.4-1.8.3-.6.8-1 1.4-1.4l.8-.6c.2-.2.5-.4.6-.7.1-.3 0-.6-.2-.8l-.7-.5-.6-.6c-.1-.2-.2-.5-.1-.7 0-.5.3-1 .6-1.3.6-.5 1.3-.8 1.8-1.3.2-.3.5-.6.6-1l-.1-1.1ZM188.7 25.4c1 1.2 1.2 3 .6 4.4-.3.8-.8 1.4-1.5 2-.6.5-1.3 1-1.8 1.6-.5.8-.5 1.7-.7 2.5-.1.7-.4 1.3-.8 1.9a5.1 5.1 0 0 1-3.8 2.1 5 5 0 0 0 4.3-3.6c.2-.8.2-1.7.5-2.4s1-1.2 1.5-1.7c.7-.5 1.3-1 1.7-1.7.8-1.4 1-3 .2-4.4-.8-1.6-2.5-2.3-4-2.8l-.7-.2c1.6.4 3.4 1 4.5 2.3Z" fill="#263238"/><path d="M183.7 22.3c.2 0 .6.1.6.3.1.2-.4 1.5-.7 1.6-.3.1-.6-.4-.6-.4l.7-1.5Z" fill="#FFC727"/><path d="M185.8 18c.4 6-3.2 7-4.5 7-1.2.1-5.2.2-6.2-5.7s1.7-8 4.4-8.3c2.6-.3 5.9 1.1 6.3 7Z" fill="#F7A9A0"/><path d="m184 16.6-.3-.1c-.2 0-.3 0-.4-.2v-.2c.1-.2.3-.2.5-.2s.3.2.5.3c.1.2 0 .4-.2.4ZM180 17.4h.4l.4-.2v-.3l-.5-.1c-.2 0-.4.1-.5.3-.2.1 0 .4.2.3ZM180.8 18.5c0 .4 0 .9-.4 1 .4 0 .5-.7.4-1Z" fill="#263238"/><path d="M180.4 18c-.6 0-.6 1.3 0 1.4.6 0 .6-1.3 0-1.4Z" fill="#263238"/><path d="m180.2 18.1-.4.2-.4-.2c0 .2 0 .5.3.5s.5-.2.5-.4c0 0 0-.1 0 0ZM183.3 18.4c0 .4 0 .9.4 1-.4 0-.5-.7-.4-1Z" fill="#263238"/><path d="M183.7 18c.6-.1.7 1.2 0 1.2-.5 0-.6-1.2 0-1.3Z" fill="#263238"/><path d="m184 18 .3.2.3-.3c0 .3 0 .6-.3.6-.2 0-.4-.2-.4-.4 0 0 0-.1 0 0ZM181 21.7l.3.3.5-.1c-.1.2-.3.3-.5.2-.2 0-.3-.2-.3-.4ZM182.9 20.2v.9h-.1c-.5.1-1 0-1.4-.5l1.3.3-.1-1 .7.1-.7-3.8h.1c.5 1.3.7 2.8.8 4 0 .2-.5 0-.6 0Z" fill="#263238"/><path d="m182.7 21-.6.6h-.5c-.3 0-.3-.4-.3-.6l.2-.4s.4.4 1.2.5Z" fill="#263238"/><path d="M182 21.6h-.4c-.3 0-.3-.4-.3-.6.4 0 .7.3.8.6Z" fill="#FF9CBD"/><path d="M175.4 19.8c1.3-.6 1.4-2 1.4-2 1.6-.7 2.5-2 2.6-2l-.5 1.4c3.8-.8 4.9-3.6 4.9-3.6 1.2 1.2 1.5 2 1.7 2.3 0 0 0-2.3-1.2-3.8-1.5-1.9-6.4-2.4-8.7.1-2.4 2.7-.2 7.6-.2 7.6Z" fill="#263238"/><path d="M181.7 16.5a7.1 7.1 0 0 1-1.9.7 5.9 5.9 0 0 0 3.6-2.8l.5-1.4c0 .5 0 1-.3 1.5a4.2 4.2 0 0 1-1.9 2Z" fill="#263238"/><path d="M176.1 19.7s-1.2-1.9-2.1-1.4c-.9.4 0 3.2 1 3.5 1 .4 1.4-.5 1.4-.5l-.3-1.6Z" fill="#F7A9A0"/><path d="M174.3 19c.7.4 1 1 1.3 1.7-.2-.3-.5-.4-.9-.2.3 0 .5 0 .7.3l.3.6h.2c0-1-.7-2.2-1.6-2.3Z" fill="#263238"/><path d="M176.4 21.3s-.1.4-.5.6h-.2a1 1 0 0 1-.4 0h-.2c-1-.4-2-3.2-1.1-3.6.9-.5 2.1 1.4 2.1 1.4l.3 1.6Z" fill="#F7A9A0"/><path d="M174.3 19c.7.4 1 1 1.3 1.7-.2-.3-.5-.4-.9-.2.3 0 .5 0 .7.3l.3.6h.2c0-1-.7-2.2-1.6-2.3Z" fill="#263238"/><path d="M176 22.4v.7c0 .3-.1.4-.2.4h-.3c-.3-.3-.4-1.4-.4-1.6h.2c0 .4.1 1.2.3 1.4h.1l.2-.4c0-.4 0-.7-.2-1 0-.2-.1-.3-.2-.3l-.1-.1v-.1c.3 0 .4.2.5.5l.1.5Z" fill="#FFC727"/></g><defs><clipPath id="a"><path fill="#fff" transform="translate(1)" d="M0 0h331v146H0z"/></clipPath></defs></svg>