<svg width="356" height="194" fill="none" xmlns="http://www.w3.org/2000/svg"><g clip-path="url(#a)"><path d="M253.7 115c-.4.4-5 .6-6.8.6a30 30 0 0 1-6.8-.6c-.4-.4 5.3-31.6 6.8-31.6 1.6 0 7.3 31.2 6.8 31.6Z" fill="#455A64"/><path d="m253.8 107-6.4 2.7v-.5l3.2-1.9a36.8 36.8 0 0 0 3.3-2 201 201 0 0 0-6.4 3.7v-4.5a35.6 35.6 0 0 0 4.8-2.6c-1.6.6-3.3 1.4-4.8 2.4v-2.4c0-4 0-8-.2-12l3.1-1.5v-.1l-3 1.3a161 161 0 0 0-.5-6.2V95l-3.3-2.4v.1l3.3 2.7v.6l-3.5-1.5s-.2 0 0 .1l3.5 1.7v5.7l.2 10a247 247 0 0 0-6.6-3c2.2 1.2 4.4 2.3 6.7 3.3a882.7 882.7 0 0 1 .3 8.3v-10.6a65 65 0 0 0 6.3-2.9Z" fill="#37474F"/><path d="M239.2 114c-.5.6-6 .8-8 .8-1.9 0-7.4-.2-7.8-.7-.5-.5 6.1-36.7 7.9-36.7 1.8 0 8.4 36.2 8 36.7Z" fill="#455A64"/><path d="m239.3 104.9-7.4 3v-.6a355 355 0 0 1 7.5-4.6 139.5 139.5 0 0 0-7.5 4.3v-5.2a42.2 42.2 0 0 0 5.7-3c-2 .8-3.8 1.7-5.7 2.8V99l-.1-14c1.2-.6 2.4-1 3.6-1.7 0 0 0-.2-.1-.1-1.2.4-2.4 1-3.5 1.5a208.4 208.4 0 0 0-.5-7.2v13.4l-3.9-2.8 3.8 3.2v.7l-4-1.7s-.2 0 0 .1l4 2 .1 6.6.3 11.6a301 301 0 0 0-7.7-3.6 82 82 0 0 0 7.7 3.9 1141.4 1141.4 0 0 1 .3 9.8h.1V108c1.3-.3 6.3-2.4 7.5-3 0 0 0-.3-.2-.2ZM281 113.6c-.6.5-6.5.7-8.6.7-2.1 0-8-.2-8.5-.7-.5-.5 6.6-39.5 8.5-39.5 1.9 0 9 39 8.5 39.5Z" fill="#37474F"/><path d="m281 103.7-8 3.3v-.7l4-2.3a45.2 45.2 0 0 0 4-2.6 199.2 199.2 0 0 0-8 4.6v-5.6a45 45 0 0 0 6.1-3.2c-2 .8-4.1 1.8-6 3v-3l-.3-15 3.9-1.8v-.2l-3.9 1.7a239 239 0 0 0-.4-7.7 282 282 0 0 0-.1 14.3l-4.1-3s-.1 0 0 .1l4 3.3v.9l-4.3-2s-.2.2 0 .2c1.4.8 2.9 1.5 4.4 2.1v7.2l.3 12.4a338.9 338.9 0 0 0-8.2-3.8 86 86 0 0 0 8.2 4.1l.2 10.4a.2.2 0 0 0 .3 0v-13.2c1.4-.4 6.8-2.7 8-3.3.2 0 0-.3 0-.2Z" fill="#455A64"/><path d="M310.8 113.6c-.5.5-6.4.7-8.5.7-2.2 0-8-.2-8.5-.7-.6-.5 6.6-39.5 8.5-39.5 1.9 0 9 39 8.5 39.5Z" fill="#37474F"/><path d="M311 103.7c-1.5.5-7 2.7-8 3.3v-.7l3.8-2.3a45.1 45.1 0 0 0 4.2-2.6 199.2 199.2 0 0 0-8 4.6v-5.6a45 45 0 0 0 6-3.2c-2.1.8-4.1 1.8-6 3v-3l-.3-15 3.9-1.8v-.2l-3.9 1.7a239 239 0 0 0-.4-7.7 282 282 0 0 0-.1 14.3l-4.1-3s-.1 0 0 .1c1.3 1.1 2.6 2.3 4 3.3v.9l-4.3-2s-.2.2 0 .2c1.4.8 2.9 1.5 4.4 2.1v7.2l.3 12.4a315 315 0 0 0-8.3-3.8 86 86 0 0 0 8.3 4.1 1114.7 1114.7 0 0 1 .4 10.5.2.2 0 0 0 .1-.1v-13.2c1.4-.4 6.8-2.7 8-3.3.1 0 0-.3 0-.2Z" fill="#455A64"/><path d="M245.4 115.7c-.3.3-4.5.5-6 .5s-5.6-.2-6-.5c-.3-.4 4.7-27.8 6-27.8 1.4 0 6.4 27.4 6 27.8Z" fill="#37474F"/><path d="M245.5 108.7 240 111v-.6a730.1 730.1 0 0 1 2.8-1.8l-2.8 1.6v-3.9a31.3 31.3 0 0 0 4.3-2.3c-1.5.6-3 1.3-4.3 2.1v-2l-.1-10.6 2.7-1.3v-.1c-1 .3-1.8.8-2.7 1.2a172.5 172.5 0 0 0-.4-5.5V98l-2.9-2c0-.1 0 0 0 0l2.9 2.3v.6l-3-1.3h-.2l3.2 1.6v5l.2 8.7a221.1 221.1 0 0 0-5.8-2.7c1.9 1.1 3.8 2 5.8 3l.2 7.2v.1a.1.1 0 0 0 .2 0v-9.3a57 57 0 0 0 5.5-2.5Z" fill="#455A64"/><path d="M217.7 115.7c-.3.3-4.5.5-6 .5s-5.6-.2-6-.5c-.3-.4 4.7-27.8 6-27.8 1.4 0 6.4 27.4 6 27.8Z" fill="#37474F"/><path d="m217.8 108.7-5.6 2.4v-.6l2.7-1.6a32.6 32.6 0 0 0 3-1.8l-3 1.6-2.7 1.6v-3.9a31.7 31.7 0 0 0 4.3-2.3c-1.5.6-3 1.3-4.3 2.1v-2l-.1-10.6 2.7-1.3v-.1c-1 .3-1.9.8-2.7 1.2a156.2 156.2 0 0 0-.4-5.5V98l-3-2c0-.1 0 0 0 0l3 2.3v.6l-3-1.3h-.2l3.2 1.6a1184.7 1184.7 0 0 1 .2 13.7 232.8 232.8 0 0 0-5.8-2.7c1.9 1.1 3.8 2 5.8 3a1040 1040 0 0 1 .4 7.2v-9.3a56 56 0 0 0 5.5-2.4ZM255.9 115.7c.3.4 4.4.5 6 .5 1.4 0 5.5-.1 5.9-.5.3-.4-4.7-27.6-6-27.6-1.3 0-6.3 27.2-6 27.6Z" fill="#455A64"/><path d="m255.8 108.7 5.6 2.4v-.5l-2.8-1.6a31.3 31.3 0 0 1-2.9-1.8l3 1.5 2.7 1.7v-4a31.7 31.7 0 0 1-4.3-2.2c1.5.6 3 1.3 4.3 2.1v-2l.1-10.5-2.7-1.3v-.1l2.7 1.1a152.3 152.3 0 0 1 .4-5.4v10l2.9-2-2.9 2.4v.5l3-1.3.1.1-3.1 1.5v5l-.2 8.7a217.8 217.8 0 0 1 5.8-2.7l-5.8 3-.2 7.1v.1a.1.1 0 0 1-.1 0v-9.3a56.4 56.4 0 0 1-5.6-2.5Z" fill="#37474F"/><path d="M285.7 115.7c.3.4 4.4.5 6 .5 1.4 0 5.5-.1 5.9-.5.4-.4-4.6-27.6-6-27.6-1.3 0-6.3 27.2-6 27.6Z" fill="#455A64"/><path d="m285.6 108.7 5.6 2.4v-.5l-2.7-1.6a31.2 31.2 0 0 1-3-1.8l3 1.5 2.7 1.7v-4a31.8 31.8 0 0 1-4.3-2.2l4.3 2v-2l.1-10.5-2.7-1.3 2.7 1a143.3 143.3 0 0 1 .3-5.3c.2 3.3.2 6.7.1 10l2.9-2-2.9 2.3v.6l3-1.3c.1 0 .2 0 .1.1l-3.1 1.5v5l-.2 8.7a207.6 207.6 0 0 1 5.7-2.7 60 60 0 0 1-5.7 2.9 1003.3 1003.3 0 0 0-.4 7.2v-9.2a57.6 57.6 0 0 1-5.5-2.5Z" fill="#37474F"/><path d="M355.7 184.5H.3v3.8h355.4v-3.8Z" fill="#C7C7C7"/><path d="M25.2 184.5c.3.6.4 1.3.4 2a4 4 0 0 1-.4 1.8 4 4 0 0 1-.4-1.9c0-.6 0-1.3.4-1.9ZM53 184.5c.3.6.4 1.3.4 2a4 4 0 0 1-.4 1.8 4 4 0 0 1-.5-1.9c0-.6.2-1.3.5-1.9ZM80.7 184.5c.3.6.5 1.3.5 2a4 4 0 0 1-.5 1.8 4 4 0 0 1-.4-1.9c0-.6.2-1.3.4-1.9ZM108.5 184.5c.3.6.5 1.3.5 2a4 4 0 0 1-.5 1.8 4 4 0 0 1-.4-1.9c0-.6.1-1.3.4-1.9ZM136.3 184.5c.3.6.5 1.3.4 2a4 4 0 0 1-.4 1.8 4 4 0 0 1-.4-1.9c0-.6.1-1.3.4-1.9ZM164.1 184.5c.3.6.4 1.3.4 2a4 4 0 0 1-.4 1.8 4 4 0 0 1-.4-1.9c0-.6.1-1.3.4-1.9ZM191.9 184.5c.3.6.4 1.3.4 2a4 4 0 0 1-.4 1.8 4 4 0 0 1-.4-1.9c0-.6.1-1.3.4-1.9ZM219.7 184.5c.3.6.4 1.3.4 2a4 4 0 0 1-.4 1.8 4 4 0 0 1-.4-1.9c0-.6 0-1.3.4-1.9ZM247.5 184.5c.3.6.4 1.3.4 2a4 4 0 0 1-.4 1.8 4.4 4.4 0 0 1 0-3.8ZM275.2 184.5c.3.6.5 1.3.5 2a4 4 0 0 1-.5 1.8 4 4 0 0 1-.4-1.9c0-.6.2-1.3.4-1.9ZM303 184.5a4.4 4.4 0 0 1 0 3.8 4 4 0 0 1-.4-1.9c0-.6.1-1.3.4-1.9ZM330.8 184.5c.3.6.5 1.3.4 2a4 4 0 0 1-.4 1.8 4.4 4.4 0 0 1 0-3.8Z" fill="#263238"/><path d="m0 188.3 44.5-.1H89l89-.1h89l44.5.1 44.5.1-44.5.2h-267L0 188.3ZM0 120.5h44.5l44.5-.1 89-.1h89l44.5.1 44.5.1-44.5.2H267l-89 .1H89l-44.5-.1-44.5-.2Z" fill="#263238"/><path d="M308.1 185h12.7V66.1h-5.4l-7.3 44.3v74.4Z" fill="#455A64"/><path d="M310.3 185H343v-74.5h-32.7v74.4ZM323.7 79.2l-6.2-13h32.8l-2.1 13h-24.5Z" fill="#455A64"/><path opacity=".1" d="m323.7 79.2-6.2-13h32.8l-2.1 13h-24.5Z" fill="#fff"/><path d="m310.2 110.5 9.2-6.6 4.3-24.7-6.2-13-7.3 44.3Z" fill="#37474F"/><path d="m319.4 103.9 4.3-24.7h24.5L344 104h-24.7Z" fill="#263238"/><path d="M319.4 103.9h24.7l4-24.7h-24.4l-4.3 24.7Z" fill="#263238"/><path d="m323.7 96.8 2.6-14.8h18.5l-2.4 14.8h-18.7Z" fill="#455A64"/><path d="m336 99.4.2-1.1h5.9l-.2 1H336ZM323.1 99.4l.2-1.1h5.9l-.2 1H323ZM323.9 83l.2-1h1.3l-.2 1H324ZM323.5 85.3l.2-1.1h1.4l-.2 1.1h-1.4ZM322.8 89.7l.2-1h1.4l-.2 1h-1.4Z" fill="#FFC727"/><path d="m343 110.5 1.1-6.6h-24.7l-9.2 6.6H343Z" fill="#455A64"/><path opacity=".1" d="m343 110.5 1.1-6.6h-24.7l-9.2 6.6H343Z" fill="#fff"/><path d="M341 185h12.8V66.1h-5.5l-7.3 44.3v74.4Z" fill="#455A64"/><path d="m318.3 122.1-2.3-5h6.5l-.8 5h-3.4Z" fill="#37474F"/><path d="m313.2 134 3.5-2.5 1.6-9.4-2.3-5-2.8 16.9Z" fill="#263238"/><path d="m316.7 131.5 1.6-9.4h3.4l-1.6 9.4h-3.4Z" fill="#263238"/><path d="M316.7 131.5h3.4l1.6-9.4h-3.4l-1.6 9.4Z" fill="#A6A6A6"/><path d="m319.7 134 1-6.6h-3.3l-4.2 6.6h6.5ZM330.3 122.1l-2.3-5h6.5l-.9 5h-3.3Z" fill="#37474F"/><path d="m325.2 134 3.5-2.5 1.6-9.4-2.3-5-2.8 16.9Z" fill="#263238"/><path d="m328.7 131.5 1.6-9.4h3.3l-1.5 9.4h-3.4Z" fill="#263238"/><path d="M328.7 131.5h3.4l1.5-9.4h-3.3l-1.6 9.4Z" fill="#A6A6A6"/><path d="m331.7 134 1-6.6h-3.3l-4.2 6.6h6.5ZM329.8 170l-1.6-3.3h4.3l-.5 3.3h-2.2Z" fill="#37474F"/><path d="m326.4 177.9 2.3-1.7 1-6.2-1.5-3.3-1.8 11.2Z" fill="#263238"/><path d="m328.7 176.2 1-6.2h2.3l-1 6.2h-2.3Z" fill="#263238"/><path d="M328.7 176.2h2.3l1-6.2h-2.2l-1.1 6.2Z" fill="#A6A6A6"/><path d="m330.7 177.9.7-4.4h-2.2l-2.8 4.4h4.3Z" fill="#37474F"/><path d="M323 142.2v25.6c0 2.3.6 4 3 4h5.2" stroke="#263238" stroke-width="5" stroke-miterlimit="10"/><path d="M330.6 132.3a8 8 0 0 1 2.1.8s-1 11.3-1.3 11.5a6 6 0 0 1-2.2.6c-.3 0-2.3-1.3-2.3-1.3l.3-.7 1.4.7 1-.2.3-.6-1.5-1.4-3.2-.5.4-1.2 3.2.4a8 8 0 0 1-.7-3.6c0-2 .5-3.8 1-4.2.4-.3 1-.4 1.5-.3Z" fill="#263238"/><path d="m333.7 121.6-.6 3.5-1.2 1.6-1.6-1.6 3.4-3.5Z" fill="#C7C7C7"/><path d="M322.1 133.2c.1.2 7.8-.8 8.3-.7.6 0 2.3.8 2.3.6 0-.5-.2-1-.4-1.6l-2-2.1 1.7-2.4c.2-.2-2-2.1-2-2.1l-1.3.9s-4.5 1.8-4.8 2.2c-.3.4-1.8 5.2-1.8 5.2Z" fill="#FFC727"/><path d="m323 133.2 5.2-.5-3.7 10.3-3.4-.6 2-9.2Z" fill="#EBEBEB"/><path d="m317.8 170-1.6-3.3h4.3l-.5 3.3h-2.2Z" fill="#37474F"/><path d="m314.4 177.9 2.3-1.7 1-6.2-1.5-3.3-1.8 11.2Z" fill="#263238"/><path d="m316.7 176.2 1-6.2h2.3l-1 6.2h-2.3Z" fill="#263238"/><path d="M316.7 176.2h2.3l1-6.2h-2.2l-1.1 6.2Z" fill="#A6A6A6"/><path d="m318.7 177.9.7-4.4h-2.2l-2.8 4.4h4.3Z" fill="#37474F"/><path d="M311 142.2v25.6c0 2.3.6 4 3 4h5.2" stroke="#263238" stroke-width="5" stroke-miterlimit="10"/><path d="m320.7 133.1-2-.8c-.6 0-1.2 0-1.6.3-.5.4-1 2.2-1 4.2a8 8 0 0 0 .7 3.6l-3.2-.4-.4 1.2 3.2.5 1.5 1.4-.3.6-1 .2-1.4-.7-.3.7 2.3 1.3c.2.1 2-.4 2.2-.6.2-.2 1.4-11.5 1.4-11.5Zm-1.4 6.3c-.2.4-1.5.8-1.9.7-.4-.2-.6-2.7-.6-3.6 0-1.2.3-2.3.6-3.4.2-.4 1.2-.6 1.4-.6.5.5.9 1 1.1 1.5 0 .2-.4 5-.6 5.4Z" fill="#263238"/><path d="m321.7 121.6-.5 3.5-1.3 1.6-1.6-1.6 3.4-3.5Z" fill="#C7C7C7"/><path d="M310.1 133.2c.1.2 7.8-.8 8.3-.7.6 0 2.3.8 2.3.6 0-.5-.2-1-.4-1.6l-2-2.1 1.7-2.4c.2-.2-2-2.1-2-2.1l-1.3.9s-4.5 1.8-4.8 2.2c-.3.4-1.8 5.2-1.8 5.2Z" fill="#FFC727"/><path d="m311 133.2 5.2-.5-3.7 10.3-3.4-.6 2-9.2Z" fill="#EBEBEB"/><path d="M315.4 66.2h40.3v-1.3h-40.3v1.3Z" fill="#455A64"/><path opacity=".1" d="M350.3 66.2h5.4v-1.3h-5.4v1.3Z" fill="#000"/><path d="M315.4 64.9h40.3V50h-40.3V65Z" fill="#455A64"/><path opacity=".1" d="M350.3 64.9h5.4V50h-5.4V65Z" fill="#000"/><path d="M343 185h12.7V66.1h-5.4l-7.3 44.3v74.4Z" fill="#455A64"/><path opacity=".1" d="M343 185h12.7V66.1h-5.4l-7.3 44.3v74.4Z" fill="#000"/><path d="M330 59.8a2.6 2.6 0 1 0 5 0c0-2.6-2.2-4.6-2.5-7.4-.3 2.8-2.6 4.8-2.6 7.4Z" fill="#263238"/><path d="M331.4 57a19 19 0 0 0-.5 2.6c0 .4 0 .8.2 1.1.2.4.5.8.8 1a2 2 0 0 1-1.2-.8c-.2-.4-.4-.9-.4-1.4 0-.4.2-.9.4-1.3l.7-1.2Z" fill="#fff"/><path d="M61.8 161h63.8s-7-29.8-31.9-29.8c-25 0-30.8 23.1-32 29.8Z" fill="#FFC727"/><path opacity=".2" d="M61.8 161h63.8s-7-29.8-31.9-29.8c-25 0-30.8 23.1-32 29.8Z" fill="#000"/><path d="M64 106.4c-1.3 2.2-7.2 26.3-7.3 27.2-.1.8-2.1 4.5-2.2 5.2 0 .7-.5 11.5-.2 12.2a30 30 0 0 0 2.2 3.6c.3.4 1.4 8.2 2.4 8.3 1 .1 5 .2 5.1 0 .2-.2 1.3-29 29.7-29s28 30.6 28.6 30.7l112.7 3c0-4.7.3-32.5 28.2-32.5 18.1 0 27.3 15 27.6 26 .2 4.6-.6 9.6-.4 9.6.9 0 3.7.2 4.2 0s6.4-4.1 7-4.2c.4-.2 1.8-.3 2.7-.5.8-.2 6.7-5.3 6.8-5.5l.3-2.4 2.3-8.3c.3-.8.4-7.4.4-8 0-.7-6.9-16.7-9.4-18.6a113 113 0 0 0-23.6-10.6c-5.3-1-34-5.2-35.1-6-1-.7-50.3-28.9-58.8-31-7-1.6-72 .7-76.2 1-4.2.1-29 3.9-29.7 4.3-.8.3 0 3.4 1 4 0 0-15.9 17.8-18.3 21.5Z" fill="#FFC727"/><path opacity=".1" d="M255.5 136c-20.2 4.5-20.5 27.4-20.5 31.6l-112.7-3c-.4 0-.3-20.1-15.3-27.7a38 38 0 0 1 18.6 23.1c.4 1.3 4 3.2 35.6 4.3 31.6 1 59.1.3 64.4-.4 5.2-.7 11.3-28 29.9-28Z" fill="#000"/><path d="M232.1 164.2H296s-7-29.8-32-29.8c-24.9 0-30.8 23.1-31.9 29.8Z" fill="#FFC727"/><path opacity=".2" d="M232.1 164.2H296s-7-29.8-32-29.8c-24.9 0-30.8 23.1-31.9 29.8Z" fill="#000"/><path d="M84.1 104.5c1.4 4 152 11.6 153 9.6.6-1.4-14.2-13.3-21.1-17.2-7-3.9-26.7-15-36.5-16.2a461 461 0 0 0-46.7-.7c-17 .3-22.3.7-29.4 3.7-6.2 2.7-20.4 17.6-19.3 20.8Z" fill="#263238"/><path d="M88.7 102.2c.5 1.5 22.1 4.6 65 6.6 42.8 2 64 3 64.5 2.9.5-.2-1.5-11.6-2.2-12.6-.7-1-31.4-16.6-36.3-17-4.8-.4-30.8-.2-44-.3a86.4 86.4 0 0 0-30.2 3.6 60.4 60.4 0 0 0-16.8 16.8Z" fill="#37474F"/><g opacity=".1" fill="#fff"><path opacity=".1" d="m128.8 81.9-23.4 23.4c-5.3-.6-9.4-1.2-12.1-1.7l20.3-20.3c5-.8 10.1-1.3 15.2-1.4ZM218.2 111.7c-.2 0-4.3 0-12.3-.4l10.6-10.6c.9 3.3 2.1 10.8 1.7 11ZM147.8 81.8 122.7 107l-5.7-.4h-.7l24.6-24.7h7ZM206.4 93.9l-16.7 16.6-6.6-.3 18.7-18.6 4.6 2.3ZM108 84.6l-18.2 18.2c-.7-.3-1-.5-1-.6v-.4l16.1-16 .6-.3 2.5-1ZM210.3 96l-14.8 14.8-2-.1 15.6-15.5 1.2.7ZM184.8 83.7 159.3 109h2l24.9-24.8-1.4-.6Z"/></g><path d="M134.4 82.5c.2.8.7 25 .7 25.9 0 .8-1 1-1 1l13.9.6s-.9-.3-1-.7c-.2-.4-4.5-26.6-4.5-27 0-.3.7-.6.7-.6h-9.7a1.4 1.4 0 0 1 .9.8Z" fill="#263238"/><path d="M282 120.4c1 2.6 10.8 8.4 14.6 9.7 2.4.8 10.7 2.6 11.3 2.2.6-.4-2.6-7-4.5-8.7-2-1.8-11.9-7-15.1-7.4-3.2-.3-7.3 1.5-6.3 4.2Z" fill="#fff"/><path d="M307.9 132.3c-.6.4-9-1.4-11.3-2.2-3.8-1.3-13.5-7.1-14.6-9.7-1-2.6 3-4.5 6.3-4.2l.7.1c-3 .7-4 3-2.5 4.7 1.6 1.7 7 5.9 9.1 6.9 2.2 1 10.3 3.6 11 3.1a1.6 1.6 0 0 0 .6-1.2c.6 1.3 1 2.4.7 2.5Z" fill="#EBEBEB"/><g opacity=".2" fill="#000"><path opacity=".2" d="m141.1 111.8-1 6.6-.3 3.4-.2 1.7v1.7l.1 13.5.1 6.8.1 3.3v1.7l.2 1.7.5 6.8.6 6.7-.4-6.7-.4-6.8v-3.4l-.1-3.3v-6.8l-.3-13.5v-1.7l.1-1.7.4-3.3.6-6.7Z"/><path opacity=".2" d="M233.3 128.3a696.3 696.3 0 0 1-.4 17c0 1.2-.2 2.3-.5 3.4a123.2 123.2 0 0 1-4.2 12.8l-.4.7-.4.8-.4.6-.3.4-.4.1c-1 .2-2 .2-3 .2-7.8.2-15.7.1-23.6 0a1787 1787 0 0 1-47.2-1c-3.9-.3-7.7-.2-11.6-.6v-.4c4 .4 7.7.4 11.6.5l23.6.7 23.6.4c7.9.1 15.8.2 23.6 0h3l.3-.1.2-.4.4-.6.4-.7.3-.8a104.8 104.8 0 0 0 4.8-16l.1-3.4.4-13.6v-2.6l-.2-.8-.5-3.3-.9-6.8 1 6.7.5 3.4.1.8v.9l.1 1.7ZM290 126.4A140.8 140.8 0 0 1 274 136a141 141 0 0 1 3.9-2.5l4-2.4 4-2.3 2-1.2a19 19 0 0 0 2-1.2Z"/><path opacity=".2" d="m139.6 141.3 12.6.3 12.5.4 25.2.7 25.1.8 12.6.4 12.5.4-12.5-.3-12.6-.3-25.1-.7-25.2-.8-12.5-.4-12.6-.5Z"/></g><path d="M104.4 186.2A26.4 26.4 0 1 0 82 138.5a26.4 26.4 0 0 0 22.4 47.7Z" fill="#263238"/><path d="M111 169.7A19.2 19.2 0 1 0 75.4 155a19.2 19.2 0 0 0 35.6 14.6Z" fill="#DBDBDB"/><path d="M110.5 166.4a17.8 17.8 0 1 0-34.6-8 17.8 17.8 0 0 0 34.6 8Z" fill="#A6A6A6"/><path d="M96 158h-5.6c1.8-2.8-4.7-12.3-4.7-12.3l2.9-1c2 3.4 3 4.4 4.5 4.4 1.6 0 2.6-1 4.6-4.4l3 1s-6.6 9.5-4.8 12.2ZM89.9 158.3l-1.7 5.3c-2-2.7-13.1.6-13.1.6v-3c3.8-.9 5-1.5 5.5-3 .5-1.6-.1-2.8-2.7-5.7l1.8-2.5s7 9.2 10.2 8.3ZM88.3 164.1l4.6 3.3c-3.2 1-3.4 12.6-3.4 12.6l-3-1c.4-3.8.2-5.1-1.1-6-1.3-1-2.7-.8-6.2.8l-1.8-2.6s10.9-3.8 11-7ZM93.4 167.4l4.5-3.3c.1 3.3 11 7.1 11 7.1l-1.8 2.6c-3.5-1.6-4.9-1.8-6.2-.9-1.3 1-1.5 2.3-1.1 6.2l-3 1s-.2-11.6-3.4-12.7ZM98.1 163.6l-1.7-5.3c3.2 1 10.2-8.3 10.2-8.3l1.8 2.5c-2.6 3-3.2 4.2-2.7 5.7s1.7 2.1 5.5 3v3s-11-3.3-13-.6Z" fill="#DBDBDB"/><path d="M98.2 163a5.2 5.2 0 1 0-10.1-1.6 5.2 5.2 0 0 0 10.1 1.7Z" fill="#DBDBDB"/><path d="M273.4 186.6a26.4 26.4 0 1 0-20.8-48.4 26.4 26.4 0 0 0 20.8 48.4Z" fill="#263238"/><path d="M281.7 166.8a19.3 19.3 0 1 0-37.5-8.8 19.3 19.3 0 0 0 37.5 8.8Z" fill="#DBDBDB"/><path d="M280.2 166.6a17.8 17.8 0 1 0-34.4-8.5 17.8 17.8 0 0 0 34.4 8.5Z" fill="#A6A6A6"/><path d="M265.8 158h-5.6c1.9-2.8-4.7-12.3-4.7-12.3l3-1c1.9 3.4 2.9 4.4 4.5 4.4s2.6-1 4.5-4.4l3 1s-6.6 9.5-4.7 12.2ZM259.7 158.3l-1.7 5.3c-2-2.7-13 .6-13 .6v-3c3.7-.9 5-1.5 5.4-3 .5-1.6-.1-2.8-2.7-5.7l1.9-2.5s7 9.2 10.1 8.3ZM258.1 164.1l4.6 3.3c-3.2 1-3.4 12.6-3.4 12.6l-3-1c.4-3.8.2-5.1-1.1-6-1.3-1-2.7-.8-6.3.8l-1.7-2.6s10.9-3.8 11-7ZM263.3 167.4l4.5-3.3c0 3.3 11 7.1 11 7.1l-1.9 2.6c-3.5-1.6-4.9-1.8-6.2-.9-1.3 1-1.5 2.3-1.1 6.2l-3 1s-.2-11.6-3.3-12.7ZM268 163.6l-1.8-5.3c3.2 1 10.2-8.3 10.2-8.3l1.8 2.5c-2.6 3-3.2 4.2-2.7 5.7s1.8 2.1 5.5 3v3s-11-3.3-13-.6Z" fill="#DBDBDB"/><path d="M268 163.5a5.2 5.2 0 1 0-10-2.4 5.2 5.2 0 0 0 10 2.4Z" fill="#DBDBDB"/><path d="M212.1 101.8c-1 1-.8 9.6-.1 10.3.6.7 10.2 1.3 11-4 .8-5.4-9.4-7.8-10.9-6.3Z" fill="#FFC727"/><path d="M247 107h-7.7c-20.3-13.4-48-26.6-48-26.6l4.5-1a988.8 988.8 0 0 1 50.2 27.3l1 .3Z" fill="#37474F"/><g opacity=".5" fill="#fff"><path opacity=".5" d="M62.6 145.2a33.9 33.9 0 0 1 13.5-12.8 37 37 0 0 1 18.2-4.5l2.3.1h1.2l1.2.2 2.3.3 2.3.6a29.2 29.2 0 0 1 15.7 10c2 2.4 3.6 5 5 7.9a45.1 45.1 0 0 0-5.2-7.8 30 30 0 0 0-7-6 38 38 0 0 0-43.3 5c-2.4 2-4.5 4.3-6.2 7ZM231.8 145.2a36.5 36.5 0 0 1 31.7-17.3l2.4.1h1.2l1.1.2 2.4.3 2.3.6a29.2 29.2 0 0 1 15.7 10c1.9 2.4 3.6 5 4.9 7.9a43.4 43.4 0 0 0-5.2-7.8c-2-2.4-4.4-4.4-7-6a38 38 0 0 0-35.7-.4 37.3 37.3 0 0 0-13.8 12.4ZM72 101.4a524.6 524.6 0 0 1 27-19.5 14 14 0 0 1 1.8-.9 100 100 0 0 1 19.3-3.5h7.8l-7.8.3c-2.6 0-5.2.4-7.8 1a238.2 238.2 0 0 0-12.2 3.1 16.8 16.8 0 0 0-2.5 1.6c-4.4 2.8-8.6 5.8-12.9 8.9l-12.8 9Z"/></g><path opacity=".1" d="m315.7 149.8-2.3 8.3-.3 2.4c-.1.2-6 5.3-6.8 5.5-.8.2-4.3.3-4.8.4l-6.9 4.3c-.5.2-3.4 0-4.2 0-.2 0 .6-5 .4-9.6-.2-8-5-18-14.7-23 5.2 1.1 13.9 8.2 17.4 15.5 3.5 7.4 2.6 8 3.4 8.8.9.9 3.6-1 4.8-1.2 1.3-.3 5.4-.4 7-.8 1.5-.3 1.8-3 2.9-3.7 1-.7 2.5-5 4-6.9Z" fill="#000"/><path opacity=".3" d="M87.4 116v.1a5.7 5.7 0 1 1 0-.1Z" fill="#000"/><path opacity=".3" d="M72 121.6a3.5 3.5 0 0 1-2.6-1.7 6.8 6.8 0 0 1-1.1-3.8c0-1.4.3-2.7 1-3.8a3.4 3.4 0 0 1 2.7-1.7 3.4 3.4 0 0 1 2.8 1.6 3.6 3.6 0 0 0-2.8-1.8 3.5 3.5 0 0 0-2.9 1.6 7.2 7.2 0 0 0-1.2 4.1c0 1.5.4 2.9 1.2 4.1a3.5 3.5 0 0 0 2.9 1.6 3.6 3.6 0 0 0 2.8-1.7c.7-1 1-2.2 1.1-3.4 0 1.2-.5 2.3-1.1 3.3a3.3 3.3 0 0 1-2.8 1.6Zm3.9-6.7v.6-.6Z" fill="#000"/><path opacity=".3" d="M76 116.1v.5c-.1 1.3-.5 2.4-1.2 3.4a3.3 3.3 0 0 1-2.8 1.6 3.5 3.5 0 0 1-2.6-1.7 6.8 6.8 0 0 1-1.1-3.8c0-1.4.3-2.7 1-3.8a3.4 3.4 0 0 1 2.7-1.7 3.4 3.4 0 0 1 2.8 1.6A6.7 6.7 0 0 1 76 116Z" fill="#000"/><path d="M85.2 116v.1a3.6 3.6 0 0 1-6 2.5c-.8-.7-1.2-1.6-1.2-2.5 0-1 .4-2 1.1-2.6a3.6 3.6 0 0 1 5 0c.7.7 1 1.6 1 2.5Z" fill="#263238"/><path d="M59.4 122s1.2 2.3 1 3c0 .7-.9 7.7-1.4 8-.5.3-1.6 1-2.6.8-1-.2 3-11.8 3-11.8Z" fill="#EBEBEB"/><path d="M82.2 84.8s-8 10-8.6 11l-6.9 9.1-1.8.4L76 90.5l6.1-5.7Z" fill="#37474F"/><path opacity=".3" d="M155.2 115.7h-2c-2.1 0-3.8 1.7-3.8 3.7v.4c0 2 1.7 3.7 3.7 3.7h2c2.1 0 3.8-1.6 3.8-3.7v-.4c0-2-1.7-3.7-3.7-3.7Z" fill="#000"/><path d="M160.5 118.6h-14c-.3 0-.5.2-.5.5v1.6c0 .3.2.5.5.5h14c.3 0 .6-.2.6-.5v-1.6c0-.3-.3-.5-.6-.5Z" fill="#FFC727"/><path opacity=".1" d="M160.5 118.6h-14c-.3 0-.5.2-.5.5v1.6c0 .3.2.5.5.5h14c.3 0 .6-.2.6-.5v-1.6c0-.3-.3-.5-.6-.5Z" fill="#000"/><path d="M180.4 62.5a29.2 29.2 0 1 1 0-58.4 29.2 29.2 0 0 1 0 58.4Zm0-51.8a22.7 22.7 0 0 0-16 38.7 22.7 22.7 0 0 0 38.7-16 22.7 22.7 0 0 0-22.7-22.7Z" fill="#FFC727"/><path opacity=".1" d="M180.4 62.5a29.2 29.2 0 1 1 0-58.4 29.2 29.2 0 0 1 0 58.4Zm0-51.8a22.7 22.7 0 0 0-16 38.7 22.7 22.7 0 0 0 38.7-16 22.7 22.7 0 0 0-22.7-22.7Z" fill="#000"/><path d="M162.2 31.5a14.7 14.7 0 1 0 0-29.4 14.7 14.7 0 0 0 0 29.4Z" fill="#FFC727"/><path d="M162.2 33.4a16.6 16.6 0 1 0 0-33.2 16.6 16.6 0 0 0 0 33.2Z" stroke="#FFC727" stroke-miterlimit="10" stroke-dasharray="3.03 3.03"/><path d="m165.5 6.4-8.6 11.1h5.3l-3 9.8 8.2-12.1h-5.2l3.3-8.8Z" fill="#fff"/><path d="M198.5 67.9a14.7 14.7 0 1 0 0-29.5 14.7 14.7 0 0 0 0 29.5Z" fill="#FFC727"/><path d="M193.9 57.3a5 5 0 0 0 4.7 5.2 5 5 0 0 0 4.6-5.2c0-4.6-4-8.4-4.7-13.5-.5 5.1-4.6 8.9-4.6 13.5Z" fill="#fff"/><path d="M196.6 52.3c-1 2.9-2 6.4.8 8.6-3.9-1-3.2-6.3-.8-8.6Z" fill="#FFC727"/><path d="M198.5 69.7a16.6 16.6 0 1 0 0-33.1 16.6 16.6 0 0 0 0 33.1Z" stroke="#FFC727" stroke-miterlimit="10" stroke-dasharray="3.03 3.03"/><path d="M47.9 185H35.2V66.1h5.4l7.3 44.3v74.4Z" fill="#FFC727"/><path d="M45.7 110.5H13v74.4h32.7v-74.4Z" fill="#FFC727"/><path d="m32.3 79.2 6.2-13H5.7l2.1 13h24.5Z" fill="#455A64"/><path d="m45.8 110.5-9.2-6.6-4.3-24.7 6.2-13 7.3 44.3Z" fill="#37474F"/><path d="m36.6 103.9-4.3-24.7H7.8L12 104h24.7Z" fill="#263238"/><path d="M36.6 103.9H11.9l-4-24.7h24.4l4.3 24.7Z" fill="#263238"/><path d="M32.3 96.8 29.7 82H11.2l2.4 14.8h18.7Z" fill="#455A64"/><path d="m20 99.4-.2-1.1h-5.9l.2 1H20ZM32.9 99.4l-.2-1.1h-5.9l.2 1h5.9ZM32.1 83l-.2-1h-1.3l.2 1H32ZM32.5 85.3l-.2-1.1h-1.4l.2 1.1h1.4ZM33.2 89.7l-.2-1h-1.4l.2 1h1.4Z" fill="#FFC727"/><path d="m13 110.5-1.1-6.6h24.7l9.1 6.6H13Z" fill="#455A64"/><path d="M15 185H2.2V66.1h5.5l7.3 44.3v74.4Z" fill="#FFC727"/><path d="m33.8 122.1 2.3-5H25.6l.8 5h7.4Z" fill="#455A64"/><path d="m38.9 134-3.5-2.5-1.6-9.4 2.3-5L39 134Z" fill="#37474F"/><path d="m35.4 131.5-1.6-9.4h-7.4l1.6 9.4h7.4Z" fill="#263238"/><path d="M35.4 131.5H28l-1.6-9.4h7.4l1.6 9.4Z" fill="#263238"/><path d="m28.4 134-1-6.6h7.3l4.2 6.6H28.4Z" fill="#455A64"/><path d="M33.7 124.7h2c1.8 0 1.6 1.5 1.6 3.8V181c0 1.3 1.5 2.7 3.3 2.7h24.6a3.2 3.2 0 0 0 3.2-3.2v-61.3a3.2 3.2 0 0 1 3.2-3.2h6.6" stroke="#263238" stroke-width="5" stroke-miterlimit="10"/><path d="M30.5 126.2h3.3v-3h-3.3v3Z" fill="#37474F"/><path d="M29.4 126.8h3v-4.1h-3v4ZM80.7 114.5h-2.5v3h2.5v-3Z" fill="#37474F"/><path d="M84 116a2.5 2.5 0 1 1-5.1 0 2.5 2.5 0 0 1 5 0Z" fill="#37474F"/><path d="M40.6 64.9H.3v1.3h40.3v-1.3Z" fill="#FFC727"/><path opacity=".1" d="M5.7 64.9H.3v1.3h5.4v-1.3Z" fill="#000"/><path d="M40.6 50.1H.3V65h40.3V50Z" fill="#FFC727"/><path opacity=".1" d="M5.7 50.1H.3V65h5.4V50Z" fill="#000"/><path d="M25.1 52.4 21 57.8h2.6l-1.4 4.8 4-6h-2.6l1.6-4.2Z" fill="#fff"/><path d="M13 185H.3V66.1h5.4l7.3 44.3v74.4Z" fill="#FFC727"/><path opacity=".1" d="M13 185H.3V66.1h5.4l7.3 44.3v74.4Z" fill="#000"/><path d="M67 188.3c1 .3 28.6.4 29.6-.3.4-.2.7-4.2.8-9v-.2l1.4-17.5-18 .2-1.2 17v.3s-10.5 4.7-11.6 5.5c-1 .9-2 3.7-1 4Z" fill="#AD6359"/><path d="M67 188.3c1 .3 28.6.4 29.6-.3.3-.2.6-3.1.7-7-4.3.7-25.1 4-25.6 2.3-.1-.3.4-.8 1-1.3-1.6.7-3.2 1.5-4.7 2.4-1 .8-2 3.6-1 3.9Z" fill="#FFC727"/><path d="M126.5 97.5s-23 36-23.5 38.5c-.8 3.8-4.7 42.4-4.7 42.4H78.6s3.8-34 7.1-45.2c2.4-8 20.4-34.5 20.4-34.5l20.4-1.2Z" fill="#455A64"/><path d="M80 175c2.9-.2 13.5-.5 17.5-.2a350.2 350.2 0 0 1-17.6.1Z" fill="#263238"/><path d="M109.8 194c1 0 27.4-8 28.2-8.9.3-.4-.7-4.3-2-9-.2-1-6.8-15.6-6.8-15.6l-17 5.4 6.8 15v.4s-8.7 7.5-9.4 8.7c-.8 1-.8 4 .2 4Z" fill="#AD6359"/><path d="M109.8 194c1 0 27.4-8 28.2-8.9.2-.3-.4-3.2-1.4-7-4 2-22.9 11.3-23.8 9.8-.2-.3 0-1 .5-1.6a45.6 45.6 0 0 0-3.7 3.7c-.8 1-.8 4 .2 4Z" fill="#FFC727"/><path d="m117.9 181.6 19.4-5.5s-20.3-40.3-20.2-42.9c.1-2.2 13.3-22.2 14-26 1.1-6-2-11.4-4.9-14.6l-20 6c1 2.2 2.7 4.1 4.6 5.6 0 0-12.3 21.5-12.5 28.4-.2 7 19.6 49 19.6 49Z" fill="#455A64"/><path d="m117.5 178 4.8-1.4a211.3 211.3 0 0 1 11.9-3.2c-1.3.6-10.4 3.1-11.8 3.5l-4.9 1.3v-.1ZM107.7 103.5a37 37 0 0 1 5.6 2.6c-2-.8-3.9-1.5-5.7-2.4v-.2Z" fill="#263238"/><path d="m110 103 .4 1 .2 1h-.1l-.4-1-.4-1c0-.2.3-.3.4 0Z" fill="#263238"/><path d="m110 101.1-.3-1-.2-.9h-.1l.2 1a79.5 79.5 0 0 0 .7 2.7c-.4 0-.7-.1-1-.3l-.5-.8-.4-1-.4-1.2h-.1c.2.8.4 1.7.8 2.5.1.3.2.6.6.7.3.2.7.2 1 .2h.1c0-.7-.2-1.3-.4-1.9ZM110.4 105l-2.4 4a118.3 118.3 0 0 0-9.3 21.4 12 12 0 0 0-.2 4.6c.3 1.5.8 3 1.3 4.6a83 83 0 0 0 4.2 10l-3.3-9c-1-3-2.1-6-1.7-9.2a88.5 88.5 0 0 1 6.7-17.2l2.4-4.6c.8-1.5 1.5-3.1 2.4-4.6 0 0 0-.1 0 0ZM125 101.7h-2.4c-.4 0-.9 0-1.3-.2a3 3 0 0 1-1.2-.4c-.6-.6-1-1.2-1.4-2-.5-.6-.8-1.4-1-2.2h-.1c0 .4.1.9.3 1.3 0 .5.3.9.5 1.3a5 5 0 0 0 1.4 2c.8.5 1.7.8 2.6.7.5 0 2.5 0 2.7-.3v-.2Z" fill="#263238"/><path d="M133.3 172.8c-2.2-5.5-14.2-29.8-16.5-34.9a20 20 0 0 1-1.5-3.7c-.4-1.5 0-2.8.6-4a69 69 0 0 1 3.7-7l4.1-6.6c1.5-2.2 2.8-4.4 4-6.7 1.1-2.2 1.6-4.7 1.3-7.1a21 21 0 0 0-2.7-7l-1-1.7c1.3 2.3 2.6 4.7 3.3 7.3.3 1.2.4 2.5.3 3.8-.1 1.4-.5 2.6-1 3.8a51 51 0 0 1-3.9 6.7l-4.1 6.7a76.3 76.3 0 0 0-3.8 7c-.6 1-1 2-1.1 3.3-.1 1.3.3 2.5.9 3.7a3871.6 3871.6 0 0 0 17.4 36.4Z" fill="#263238"/><path d="M106.5 73.8c.1.4-.4 3.8-2.2 4.6-.6.2-2.1-2.9-2.1-2.9l-.2-.2-2.3-2.8 2.5-4.3.4-.6 1.3 1.9v.1l.2.2.3.4.3.4.2.4 1.6 2.8Z" fill="#AD6359"/><path d="M103.9 69.5a7.3 7.3 0 0 1-1.9 5.8l-2.3-2.8 2.5-4.3.4-.6 1.3 1.9ZM105.4 65a1.1 1.1 0 0 0 .7-.5l.1-.3.3-.3.4-.2a1.3 1.3 0 0 0 .6-1.3 1.6 1.6 0 0 0 1.2-1.6v-.3l-.1-.4c0-.1 0-.2.2-.3l.1-.3a.6.6 0 0 0-.3-.8 1 1 0 0 0 .1-1.1 1.7 1.7 0 0 0-1.1-1 1.2 1.2 0 0 0-1-1.3 1 1 0 0 0-.3-.8 1 1 0 0 0-.8-.3 1.6 1.6 0 0 0-1.2-1h-.3a1.2 1.2 0 0 0-.7-.8 1 1 0 0 0-1 .3l-.8-.2a1.2 1.2 0 0 0-1.1.5 1.7 1.7 0 0 0-2.3 1.1 1.3 1.3 0 0 0-1.4.2c-.4.5-.6 1-.7 1.6a.9.9 0 0 0-1 .9v.4a1.3 1.3 0 0 0-.4 1 .8.8 0 0 0 .5.7 1.2 1.2 0 0 0 .6 1.9 1.4 1.4 0 0 0-.5 1.4 1.4 1.4 0 0 0 1.1 1 1.3 1.3 0 0 0 .2 1.4 1.9 1.9 0 0 0 1.5.7 1.3 1.3 0 0 0 .8 1.1 1.6 1.6 0 0 0 1.3 0 1.2 1.2 0 0 1-1.2.3 1.3 1.3 0 0 1-.9-1.4 1.3 1.3 0 0 0 .8 1.5 1.4 1.4 0 0 0 1.6-.6 1.5 1.5 0 0 0 1.2 1 1.5 1.5 0 0 0 1.5-.7c1 .6 2.6-.2 2.3-1.6Zm-1.5-12-.3-.2a1.3 1.3 0 0 0-1-.1h-.2a1 1 0 0 1 1-.1c.2 0 .4.2.5.4Zm-8.7 4.1a.8.8 0 0 1-.1-.7.8.8 0 0 1 1-.5 1 1 0 0 0-1 .7v.5Zm8.4 9.4a1.7 1.7 0 0 0 1.7-1.6c.1 1.2-.7 1.7-1.7 1.6Z" fill="#263238"/><path d="M92.9 68.9c1.2 6.3 5.1 6.3 6.5 6 1.2-.4 5.4-1.3 4.8-7.7-.6-6.4-4-7.8-6.8-7.4-2.8.5-5.8 2.8-4.5 9Z" fill="#AD6359"/><path d="M93.2 68.2c.2 0 .3-.2.4-.3.1 0 .3-.1.3-.3a.2.2 0 0 0 0-.2.6.6 0 0 0-.6 0l-.4.5a.2.2 0 0 0 .3.3ZM97.2 67l-.4.1h-.5a.2.2 0 0 1 0-.3.6.6 0 0 1 .4-.3l.6.1a.2.2 0 0 1 0 .5ZM96.8 68.9c.2.4.4.9.8.9-.5 0-.7-.5-.8-1Z" fill="#263238"/><path d="M97 68.3c.7-.3 1.2 1 .6 1.3-.6.3-1-1-.5-1.3Z" fill="#263238"/><path d="M97.4 68.3c.1 0 .3.1.4 0l.3-.3a.5.5 0 0 1-.1.7c-.3 0-.5 0-.7-.3v-.1ZM94.5 69.4c.2.5.3 1 0 1.2.4-.2.3-.8 0-1.2Z" fill="#263238"/><path d="M94 69.1c-.7.2-.2 1.6.4 1.4.6-.2.2-1.5-.4-1.4Z" fill="#263238"/><path d="m93.8 69.3-.3.3c-.1 0-.3 0-.4-.2 0 .3.2.6.5.5.3 0 .3-.3.3-.6h-.1ZM95.7 71.1l.3 1h.1a1.5 1.5 0 0 0 1.2-1c-.3.3-.7.6-1.2.8l-.2-1.1-.6.3-.7-4h-.1c0 1.5.2 3 .6 4.4l.6-.4Z" fill="#263238"/><path d="M96 71.8c.3.2.6.4 1 .4h.4c.3-.2.3-.5.1-.8a2 2 0 0 0-.2-.4c-.3.4-.7.7-1.2.8Z" fill="#263238"/><path d="M97 72.2h.4c.3-.2.3-.5.1-.8a.8.8 0 0 0-.6.8Z" fill="#FF99BA"/><path d="M103.6 67.3c-1.2.4-2-2.6-2-2.6s-2.4.2-3.6-1c.5.6 1.1 1 1.9 1.4.2 0-4.4.8-5.7-2.5 0 0 .2 3.5-1.6 4.7 0 0-.5-3.1 0-4 .2-.5.6-1 1-1.4 1-1.4 2.6-2.2 4.3-2.4 2.8-.3 5.3 2 5.8 3.2 1 2.1.6 4.5 0 4.6Z" fill="#263238"/><path d="M99.8 65.2c-2.5.5-4.8-.5-5.6-3l-.1.1c.3 2.6 3.5 3.7 5.7 3v-.1ZM103.6 67.2c-1.5-.3-2-1.6-2.5-2.9.3 1.3 1 2.9 2.5 3Z" fill="#263238"/><path d="M94 62c.1 1.5.7 3.9-1 4.7 1.7-.6 1.6-3.3 1-4.6Z" fill="#263238"/><path d="M102.2 67.6s.8-2.3 1.8-2c1 .1.8 3.2-.1 3.9a1 1 0 0 1-1.6-.2l-.1-1.7Z" fill="#AD6359"/><path d="M104 66.4a2.7 2.7 0 0 0-1 2 .6.6 0 0 1 .3-.3.6.6 0 0 1 .5 0 .7.7 0 0 0-.6.4l-.2.7h-.1c-.3-1 0-2.4 1-2.8Z" fill="#263238"/><path d="M104.1 69.3c.1.3.6-.8.6-1 0-.2.5-.7.6-1v-1.4c0-.2.2-.8.1-1 0-.4-1-3.4-3.6-4.8s-4.4-1-4.4-1c-1 .1-1.9.3-2.8.7-1.4.5-2.5 4.5-2.5 4.6l.2.5c0 .2-.2.5 0 .7.2.1 0 .7 0 1l.2.3c0 .2-.4-3.7 3.7-6.3 0 0 6.5 2.8 8 8.7ZM92.5 66.9Z" fill="#FFC727"/><path opacity=".3" d="M93.4 62.5a.4.4 0 0 1-.4.4.4.4 0 0 1-.3-.3l.2-.5h.1a.4.4 0 0 1 .4.4Zm1.4-1.3a.4.4 0 0 0-.4.4.4.4 0 0 0 .2.3l.5-.5a.4.4 0 0 0-.3-.2Zm-2 2.7a.4.4 0 0 0-.3.4.4.4 0 0 0 .3.4l.3-.7H93Zm7.1-4.5v.2a.4.4 0 0 0 .4.4.4.4 0 0 0 .3-.4 9 9 0 0 0-.7-.2Zm1.2 3a.4.4 0 1 0 0 .8.4.4 0 0 0 0-.7Zm-5.5-3-.7.3a.4.4 0 1 0 .7-.2Zm2 .2a.4.4 0 0 0-.5.4.4.4 0 1 0 .7-.3.4.4 0 0 0-.3-.1Zm1.6 1.5a.4.4 0 1 0 0 .8.4.4 0 0 0 0-.8Zm3-.4a.4.4 0 0 0-.4.7H102.1a.4.4 0 0 0 .4-.3.4.4 0 0 0-.4-.4Zm.8 2.9a.4.4 0 1 0 0 .8.4.4 0 0 0 0-.8Zm.9 4.3h-.2l.2.8a.4.4 0 0 0 .4-.4.4.4 0 0 0-.4-.4Zm-1.8-2.8c0 .2.2.4.4.6v-.2l-.1-.3h-.3Zm1.8-3-.1.1-.1.3a.4.4 0 0 0 .4.3.4.4 0 0 0 .3 0l-.5-.7Zm.2 3.5-.3.1a.4.4 0 1 0 .7.3.4.4 0 0 0-.4-.4Zm1 1a.4.4 0 0 0 .2.3v-.6l-.1.2v.2Zm0-2.7a.4.4 0 0 0-.2.7l.2.1h.2a5 5 0 0 0-.3-.7Z" fill="#fff"/><path opacity=".1" d="M104.7 68.3a4 4 0 0 0-.2-.8c0-.3-.2-.5-.3-.8l-.6-1.5c0-.2 0-.3-.2-.4l-.2-.3-.6-.6-.6-.6-.7-.6a27.3 27.3 0 0 1 2.2 2l.2.4a27.9 27.9 0 0 1 1 3.2ZM102.9 62.9a7 7 0 0 1 2 2c.3.4.4.7.4 1v-.2l-.1-.1v-.1l-.1-.2-.2-.3-.1-.2-.2-.2-.1-.2-.2-.2a9.8 9.8 0 0 0-1-1l-.4-.3ZM92.3 64.7l.2-.9a18.6 18.6 0 0 1 .9-1.7c.1-.3.3-.5.6-.7a5 5 0 0 0-.6.7l-.2.4-.2.5-.4.8a16.1 16.1 0 0 0-.3 1ZM92.3 65.7l.2-.7a6 6 0 0 1 .3-1l.2-.3.1-.3.2-.3-.1.4-.2.3-.1.3-.2.3-.2.6v.4l-.2.3ZM101.2 59.9c-.7.5-2.2 1.7-2.6 1.8h-.4l-2-1.1a9 9 0 0 0-1.3 1 8 8 0 0 1-1.5-.5c.3-.6.7-1 1.2-1.3a13 13 0 0 1 2.8-.7s1.5-.3 3.8.8Z" fill="#050400"/><path d="M96.2 59.7s-2-1.5-4.2-.9c0 0 1 2 2 2.4.4.2 2-.4 2.2-.7v-.8Z" fill="#FFC727"/><path opacity=".3" d="M94 58.8a.4.4 0 0 1-.7-.1h.7ZM93 60h-.2l.5.7a.4.4 0 0 0 0-.6.4.4 0 0 0-.3-.1Zm2.2-.8a.4.4 0 1 0 0 .8.4.4 0 0 0 0-.8Z" fill="#fff"/><path opacity=".1" d="M96.2 59.7a4.3 4.3 0 0 1 0 .9H96c-.3.2-.6.4-.9.4a5 5 0 0 1-.1-1c0-.2.1-.5.4-.7l.7.4Z" fill="#050400"/><path d="M96.8 59.8s2.7-1.6 4.3-1.6c0 1-.6 2-1.4 2.8-.6.4-2.9 0-3-.4l.1-.8Z" fill="#FFC727"/><path opacity=".3" d="M100.7 59.6a.4.4 0 1 1-.8 0 .4.4 0 0 1 .8 0Zm-3.2 0a.4.4 0 0 0-.4.4.4.4 0 0 0 .8 0 .4.4 0 0 0-.4-.4Zm1.6 1.5H99h.4-.1Z" fill="#fff"/><path opacity=".1" d="M97.4 59.4c.2.3.4.6.4 1 0 .2 0 .4-.2.6-.5-.1-.8-.3-.8-.4v-.8l.6-.4Z" fill="#050400"/><path d="M97.4 60.3a1 1 0 0 1-1 1 1 1 0 0 1-1-1.2 1 1 0 0 1 1-.9 1 1 0 0 1 1 1Z" fill="#FFC727"/><path d="m103.9 94.5 1.6 5.1 21.4-7.3s-9.5-15.3-17.4-18.6c-3.9-1.6-6.9 0-8 3-.2.7-2.5 10.3-1.7 13.6.7 2.9 4 4.2 4 4.2Z" fill="#DBDBDB"/><path d="M107 78.2c1.3 3.5 5.2 17.8 2.1 21.7-3.6 4.8-9.5 9-12.2 10.7-.6.4-7.7-8.3-6-9.3l8.8-6.3c.7-.9 1.5-10.5 2.1-15.8.6-4.7 4.3-3 5.1-1Z" fill="#AD6359"/><path d="m91 101.2-6.8 2.4c-1.5.6-4 1.8-4.8 2.7-1.4 1.4-6.1 8-4.5 9.1 1.4 1.1 4.7-5 4.7-5s-3.9 5.9-2 6.8c2 1 4.9-6.5 4.9-6.5s-4 6.2-1.8 7c1.7.4 4.7-6.2 4.7-6.2s-3.4 5.3-1.7 6c1.8.6 5-5.3 5-5.3 4.5.8 7-.7 8.6-1.9.4-.3-6.3-9-6.3-9Z" fill="#AD6359"/><path d="m80.9 108.2-1.4 2a26.3 26.3 0 0 0-2.3 5.4c.6-1.8 1.5-3.6 2.5-5.2l1.2-2.2ZM83.5 109.7l-1.7 2.6-1.5 2.8c0 .1 0 .1 0 0l1.7-2.6 1.5-2.8ZM86 110.5a24.1 24.1 0 0 0-2.3 4.3l2.4-4.2Z" fill="#263238"/><path d="m93.8 99 5.4 10.8s9-6.2 10.7-10.4c1.8-4.2-.4-14-2.1-19.4-1.8-5.3-5.8-7.1-6.5 1.6a68.7 68.7 0 0 1-1.8 13c-.2.5-5.7 4.5-5.7 4.5Z" fill="#DBDBDB"/><path d="M106.9 103.5c0-.3 2.5-2.3 3.4-5.5.4-1.4.2-5.5-.2-8-.1-1-.4-1.9-.6-2.9l-1.1-5.7a40 40 0 0 1 1 3.6v-2h.1l.2 1.8V86l.2 1.1.5 3c.5 2.7.7 6.3.2 8.2-.8 3.3-3.6 5-3.7 5.2ZM100.9 108a214.6 214.6 0 0 1-2.6-4.9c-.8-1.5-1.7-3.1-2.4-4.8a97 97 0 0 1 5 9.8Z" fill="#263238"/><path d="M130.6 52.4a9.3 9.3 0 0 1-14.8 7.4l-4.6 1.2 1.9-4.2a9.3 9.3 0 0 1 11.8-13 9.3 9.3 0 0 1 5.7 8.6Z" fill="#fff"/><path d="M130.6 52.4a9.4 9.4 0 0 1-10 9.3 9.4 9.4 0 0 1-5-1.7h.2l-4.5 1.2-.5.1.2-.4 1.9-4.3v.3a9.4 9.4 0 1 1 17.7-4.5Zm0 0a9.3 9.3 0 0 0-7.4-9 9.3 9.3 0 0 0-11 9.3c0 1.4.4 2.7 1 4h.1v.2l-2 4.2-.2-.3 4.6-1.1h.1a9.1 9.1 0 0 0 13.3-2.5c1-1.4 1.5-3.1 1.5-4.8Z" fill="#263238"/><path d="m119.8 58-4.2-4.3 1.4-1.4 2.5 2.5 5-8 1.7 1-6.4 10.1Z" fill="#FFC727"/></g><defs><clipPath id="a"><path fill="#fff" d="M0 0h356v194H0z"/></clipPath></defs></svg>