<svg width="32" height="32" viewBox="0 0 32 32" fill="none" xmlns="http://www.w3.org/2000/svg">
<path d="M20.6667 14.6667C21.7713 14.6667 22.6667 13.7712 22.6667 12.6667C22.6667 11.5621 21.7713 10.6667 20.6667 10.6667C19.5622 10.6667 18.6667 11.5621 18.6667 12.6667C18.6667 13.7712 19.5622 14.6667 20.6667 14.6667Z" fill="white"/>
<path d="M11.3333 14.6667C12.4378 14.6667 13.3333 13.7712 13.3333 12.6667C13.3333 11.5621 12.4378 10.6667 11.3333 10.6667C10.2287 10.6667 9.33325 11.5621 9.33325 12.6667C9.33325 13.7712 10.2287 14.6667 11.3333 14.6667Z" fill="white"/>
<path d="M15.9867 2.66667C8.62675 2.66667 2.66675 8.64001 2.66675 16C2.66675 23.36 8.62675 29.3333 15.9867 29.3333C23.3601 29.3333 29.3334 23.36 29.3334 16C29.3334 8.64001 23.3601 2.66667 15.9867 2.66667ZM16.0001 26.6667C10.1067 26.6667 5.33341 21.8933 5.33341 16C5.33341 10.1067 10.1067 5.33334 16.0001 5.33334C21.8934 5.33334 26.6667 10.1067 26.6667 16C26.6667 21.8933 21.8934 26.6667 16.0001 26.6667ZM16.0001 21.3333C15.0267 21.3333 14.1601 21.0933 13.3867 20.64C13.2267 20.8267 12.2401 21.9467 12.0401 22.1733C13.1867 22.9067 14.5334 23.3333 16.0001 23.3333C17.4801 23.3333 18.8267 22.8933 19.9734 22.16C18.6801 20.7067 19.9601 22.1333 18.6267 20.6267C17.8401 21.0933 16.9734 21.3333 16.0001 21.3333Z" fill="white"/>
</svg>
